<?xml version="1.0" encoding="utf-8"?>
<!-- Generator: Adobe Illustrator 25.4.1, SVG Export Plug-In . SVG Version: 6.00 Build 0)  -->
<svg version="1.1" id="Calque_1" xmlns="http://www.w3.org/2000/svg" xmlns:xlink="http://www.w3.org/1999/xlink" x="0px" y="0px"
	 viewBox="0 0 841.9 595.3" style="enable-background:new 0 0 841.9 595.3;" xml:space="preserve">
<style type="text/css">
	.st0{fill:#FFFFFF;}
	.st1{fill:#095228;}
	.st2{fill:#095228;stroke:#095228;stroke-miterlimit:10;}
	.st3{fill:#095228;stroke:#010202;stroke-miterlimit:10;}
	.st4{fill:#CBB89A;}
	.st5{fill:#ADD5AC;}
	.st6{fill:none;stroke:#000000;stroke-miterlimit:10;}
	.st7{fill:#FFFFFF;stroke:#000000;stroke-miterlimit:10;}
	.st8{fill:#CBB89A;stroke:#000000;stroke-miterlimit:10;}
	.st9{fill:#CBB89A;stroke:#010202;stroke-width:0.5;stroke-miterlimit:10;}
	.st10{fill:#FFFFFF;stroke:#010202;stroke-width:0.5;stroke-miterlimit:10;}
</style>
<rect x="123.3" y="-123.3" transform="matrix(6.123234e-17 -1 1 6.123234e-17 123.3071 718.5827)" class="st0" width="595.3" height="841.8"/>
<g>
	<path class="st1" d="M809.7,28.6v538H32.2v-538H809.7 M811.7,26.6H30.2v542h781.4V26.6L811.7,26.6z"/>
</g>
<g>
	<path class="st2" d="M172.7,62.3c-0.2,0-0.5,0.2-0.7,0.5c-0.2,0.4-0.5,0.9-0.8,1.7c-1.3,3.1-2.9,5.8-4.7,8.2
		c-0.9,1.1-1.8,2-2.9,2.6c-1.1,0.6-2.2,0.9-3.6,0.9c-1.3,0-2.5-0.6-3.5-1.9c-1-1.3-1.6-2.7-1.7-4.4c3.2-0.1,5.9-1,8.1-2.8
		c2.2-1.8,3.3-4,3.3-6.6c0-1.4-0.5-2.5-1.4-3.3c-1-0.8-2.2-1.2-3.7-1.2c-3.2,0-5.8,1.2-7.8,3.7c-1.6,1.9-2.5,4.5-2.9,7.9
		c-1.1,2.4-2.3,4.4-3.4,6c-1.3,1.8-2.4,2.7-3.2,2.8c-0.5,0-0.8-0.9-0.8-2.6c0-3.3,0.3-8.1,0.8-14.6c1.9-0.4,3.7-1,5.4-1.7
		c1.7-0.8,2.5-1.4,2.4-1.8c0-0.5-0.4-0.7-1.2-0.7c-0.3,0-1.1,0.3-2.5,1c-1.4,0.7-2.7,1.1-3.9,1.3c0.6-6.8,0.9-10.7,0.9-11.5
		c0-1.8-0.3-2.7-0.9-2.7c-0.7,0-1.3,0.4-2,1.1c-0.7,0.7-1.1,1.5-1.3,2.4c-0.5,3.2-1,6.5-1.4,9.6c-0.7-0.4-1.5-0.5-2.4-0.5
		s-1.4,0.4-1.4,1.1c0.1,1.4,1.3,2.3,3.5,2.7c-0.2,1.7-0.3,3.3-0.4,4.8c-0.3,0.6-0.7,1.5-1.2,2.5c-1.3,2.9-2.6,5.2-3.9,7
		c-1.3,1.8-2.3,2.8-3.1,2.8c-0.3,0-0.4-0.7-0.4-2.2c0-1.5,0.1-3.5,0.4-6c0.3-2.5,0.4-4,0.4-4.5c0-0.4-0.1-0.9-0.4-1.3
		c-0.3-0.4-0.6-0.6-0.9-0.6l-3.6,0.4c-0.4,0-0.7-0.1-0.9-0.2c0.6-1.1,0.9-2.1,0.9-3.2s-0.3-2-1-2.9c-0.7-0.9-1.4-1.3-2.2-1.3
		c-0.8,0-1.4,0.4-1.9,1.2c-0.4,0.8-0.7,1.7-0.7,2.8s0.3,2,0.8,2.8c0.5,0.8,1.1,1.4,2,1.8c-0.4,0.7-0.9,1.8-1.6,3.3
		c-1.3,2.9-2.6,5.2-3.9,7c-1.3,1.8-2.3,2.8-3.1,2.8c-0.3,0-0.4-0.6-0.4-1.8c0-6.1,0.2-9.7,0.6-10.7c0.3-0.6,0.6-1.5,0.8-2.8
		c0.2-1.3,0.4-2.1,0.4-2.6c0-1.7-0.3-2.5-1-2.5c-0.6,0-1.4,0.3-2.3,1c-0.9,0.7-1.5,1.3-1.9,1.7c-1.8-1.8-3.3-2.8-4.7-2.8
		c-3.2,0-5.9,1.4-7.9,4.1c-1.9,2.5-2.8,5.4-3,8.7c-0.9,1.9-1.9,3.5-2.9,4.8c-1.3,1.8-2.3,2.8-3.1,2.8c-0.3,0-0.4-0.5-0.4-1.5
		s0.2-3.4,0.6-7.1c0.4-3.8,0.6-6.6,0.6-8.5c0-0.9-0.4-1.7-1.1-2.3c-0.7-0.6-1.5-0.9-2.5-0.9s-2,0.6-3.1,1.9c-1.2,1.3-2.6,3.3-4.2,6
		c-1.7,2.7-2.6,4.2-2.8,4.5c0-2.3,0-4,0.1-5.1c1.3-1.8,2.6-4.3,3.9-7.6c1.3-3.3,1.9-6.8,1.9-10.6c0-1.5-0.2-2.8-0.7-3.8
		c-0.4-1-0.9-1.4-1.3-1.4c-1,0-1.9,0.4-2.8,1.1c-4,3.1-6,10.2-6,21.5v3.8c0,0.3,0,0.6,0,0.9c-0.3,0.6-0.6,1.1-0.8,1.4
		c-3.6,5.3-7.4,7.9-11.4,7.9c-3.3,0-5.9-1.3-7.8-3.8c-1.8-2.5-2.8-5.4-2.8-8.7c0-4.7,1.3-9.3,4-13.7c2.7-4.4,5.7-6.7,9-6.7
		c3.3,0,5,1.6,5,4.7c0,1-0.4,2-1.3,3c-0.9,1-1.3,1.9-1.3,2.7c0,0.7,0.6,1.1,1.9,1.1c1.3,0,2.4-0.8,3.3-2.4c0.9-1.6,1.4-3.3,1.4-5.1
		c0-1.8-0.7-3.4-2-4.6c-1.3-1.2-3-1.8-5.1-1.8c-5.4,0-10.2,2.3-14.1,7c-4,4.7-6,10.8-6,18.5c0,3,0.9,5.9,2.8,8.7
		c0.9,1.4,2.2,2.5,3.8,3.4c1.6,0.9,3.3,1.3,5.2,1.3c6.5,0,11.8-2.8,15.8-8.4c0,0.4-0.1,0.8-0.1,1.3c-0.2,3-0.4,4.7-0.4,5.2
		c0,0.5,0.5,0.9,1.4,1.2c1,0.3,2,0.4,3,0.4c0.7,0,1.1-0.6,1.1-1.8l-0.1-2c0-1.4,0.1-2.8,0.4-4.3c0.1-0.8,1.3-2.8,3.4-5.8
		c2.2-3,3.5-4.5,4-4.5c0.5,0,0.8,0.7,0.8,2.2c0,1.4-0.1,3.6-0.4,6.6c-0.2,2.9-0.4,5-0.4,6.3c0,1.3,0.2,2.1,0.5,2.4
		c0.9,0.7,2.2,1.1,3.9,1.1c1.9,0,4.3-2.5,6.9-7.5c0.3,2.1,0.9,3.8,1.8,5c1.3,1.6,2.9,2.5,4.6,2.5c1.8,0,3.2-0.7,4.3-2.1
		c1.1-1.4,2.2-3.5,3.4-6.4c-0.1,2.1-0.1,3.8-0.1,5c0,1.3,0.2,2,0.5,2.3c0.9,0.7,2.2,1.1,3.9,1.1c2.4,0,5.3-3.7,8.8-11.1
		c1-2.1,1.6-3.8,1.8-5c0.7,0.2,1.4,0.3,2.3,0.3c-0.7,2.5-1.1,5.5-1.1,9c0,3.5,0.2,5.4,0.5,5.7c0.9,0.7,2.2,1.1,3.9,1.1
		c2.4,0,5.3-3.7,8.7-10.9c-0.1,1.7-0.1,3.2-0.1,4.4c0,3.2,0.2,5.1,0.6,5.7c0.4,0.6,1.8,0.9,4.2,0.9c2,0,4.5-2.7,7.3-8.1
		c0.2,2,0.9,3.7,2.1,5.3c1.4,1.9,3.4,2.8,5.9,2.8c4.3,0,7.8-2.3,10.7-7c2.7-4.4,4-7.7,4-9.9C173.1,62.5,173,62.3,172.7,62.3z
		 M156.6,61.3c1.1-2.1,2.3-3.2,3.9-3.2c1.3,0,1.9,1,1.9,3c0,2-0.6,3.6-1.8,4.8c-1.2,1.2-3.1,2.1-5.7,2.5
		C155,65.8,155.5,63.5,156.6,61.3z M77.4,51.1c0.7-4.9,1.5-7.3,2.3-7.3c0.5,0,0.7,0.9,0.7,2.8c0,3.6-1.3,8.2-3.9,13.6
		C76.7,56.7,77,53.7,77.4,51.1z M110.1,63.6c-0.1,0.9-0.1,1.5-0.2,1.8c-2.8,7.2-4.9,10.9-6.4,10.9c-1.2,0-2.1-0.8-2.9-2.4
		s-1.1-3.6-1.1-6.1c0-2.5,0.7-4.6,2.1-6.4c1.4-1.8,2.7-2.7,3.9-2.7c0.7,0,1.6,0.3,2.6,1c1,0.6,1.7,1.3,2.1,2
		C110.2,62.1,110.1,62.7,110.1,63.6z"/>
	<path class="st2" d="M275.5,56c-1.8,0-3.4,0.9-4.6,2.6c-1.3,1.8-2.5,4.4-3.8,7.8c0.1-1.5,0.2-2.6,0.4-3.4c0.9-1.7,1.4-3.4,1.4-5.1
		c0-1.7-0.3-2.6-0.9-2.6c-0.6,0-1.4,0.5-2.5,1.4c-1.1,0.9-1.8,1.6-2.3,2.2c-0.1,0.1-0.2,2.2-0.3,6.3c-0.2,0.4-0.4,0.8-0.6,1.3
		c-1.3,2.9-2.6,5.2-3.9,7c-1.3,1.8-2.3,2.8-3.1,2.8c-0.3,0-0.4-0.6-0.4-1.8c0-6.1,0.2-9.7,0.6-10.7c0.3-0.6,0.6-1.5,0.8-2.8
		c0.2-1.3,0.4-2.1,0.4-2.6c0-1.7-0.3-2.5-1-2.5c-0.6,0-1.4,0.3-2.3,1c-0.9,0.7-1.5,1.3-1.9,1.7c-1.8-1.8-3.3-2.8-4.7-2.8
		c-3.2,0-5.9,1.4-7.9,4.1c-1.5,2.1-2.5,4.4-2.8,7c-1.2,2.6-2.4,4.8-3.7,6.5c-1.3,1.8-2.3,2.8-3.1,2.8c-0.3,0-0.4-0.7-0.4-2.2
		c0-1.5,0.1-3.5,0.4-6c0.3-2.5,0.4-4,0.4-4.5c0-0.4-0.1-0.9-0.4-1.3c-0.3-0.4-0.6-0.6-0.9-0.6l-3.6,0.4c-0.4,0-0.7-0.1-0.9-0.2
		c0.6-1.1,0.9-2.1,0.9-3.2s-0.3-2-1-2.9c-0.7-0.9-1.4-1.3-2.2-1.3s-1.4,0.4-1.9,1.2c-0.4,0.8-0.7,1.7-0.7,2.8s0.3,2,0.8,2.8
		c0.2,0.4,0.5,0.7,0.8,0.9c-0.4,0.2-0.9,0.5-1.5,0.9c-1.5,0.9-2.9,1.6-4.3,2c0-1.7-0.7-3-2.1-3.8c-1.4-0.8-3.2-1.3-5.2-1.3
		c-2.1,0-3.8,0.5-5.1,1.4c-1.3,0.9-2,2-2,3.3c0,1.3,0.6,2.3,1.7,3.1c1.2,0.7,2.5,1.1,4.1,1.1c1.6,0,2.9-0.1,4-0.3
		c-0.5,2.4-1.7,4.4-3.6,5.9c-1.9,1.5-4.2,2.3-6.8,2.3c-3.3,0-6.1-1.4-8.3-4.1c-2.2-2.7-3.3-5.9-3.3-9.6c0-5.2,1.4-9.7,4.3-13.6
		c2.9-3.8,5.8-5.7,8.9-5.7c3.6,0,5.9,1.7,6.9,5.1c0.4,1.4,1.1,2.1,2.1,2.1c0.7,0,1.3-0.2,1.8-0.7c0.5-0.4,0.8-1,0.8-1.6
		c0-2-1-3.8-3-5.4c-2-1.6-4.2-2.3-6.7-2.3c-2.4,0-4.8,0.5-7.1,1.6s-4.5,2.6-6.6,4.6c-2,2-3.7,4.7-4.9,8c-1.3,3.3-1.9,7-1.9,11.1
		c0,3.2,1.1,6.2,3.2,9c1.1,1.4,2.6,2.6,4.6,3.6c2,0.9,4.3,1.4,6.9,1.4c4.1,0,7.8-1.1,11-3.2c3.2-2.1,5.3-5.3,6.2-9.5
		c2.4-0.8,4.7-2,7-3.6c0.3-0.2,0.5-0.4,0.6-0.6c0.8,0.3,1.8,0.5,2.9,0.5c-0.7,2.5-1.1,5.5-1.1,9c0,3.5,0.2,5.4,0.5,5.7
		c0.9,0.7,2.2,1.1,3.9,1.1c2.1,0,4.6-2.8,7.5-8.5c0.2,2.7,0.8,4.7,1.9,6c1.3,1.6,2.9,2.5,4.6,2.5c1.8,0,3.2-0.7,4.3-2.1
		c1.1-1.4,2.2-3.5,3.4-6.4c-0.1,2.1-0.1,3.8-0.1,5c0,1.3,0.2,2,0.5,2.3c0.9,0.7,2.2,1.1,3.9,1.1c2.3,0,5.1-3.4,8.4-10.3
		c-0.1,3.8-0.3,7.3-0.5,10.5c-1.8,7.1-2.8,12.9-2.8,17.5c0,0.6,0.1,1.3,0.3,2c0.2,0.7,0.6,1.1,1.1,1.1s1.3-0.5,2.4-1.4
		c1.1-0.9,1.7-1.6,1.7-2c1-4.4,1.4-10.8,1.4-19.2c1.7,1.2,3.4,1.8,5.1,1.8c3.2,0,5.9-1.4,7.9-4.1c2-2.7,3-5.9,3-9.4
		c0-3.5-0.7-6.1-2-7.8C278.9,56.9,277.3,56,275.5,56z M207.9,66.1c-0.9,0-1.7-0.2-2.5-0.7c-0.8-0.4-1.2-1-1.2-1.6c0-0.9,1-1.3,3-1.3
		c0.8,0,1.6,0.3,2.2,1c0.7,0.6,1,1.5,1.1,2.5C209.6,66.1,208.8,66.1,207.9,66.1z M250.8,63.6c-0.1,0.9-0.1,1.5-0.2,1.8
		c-2.8,7.2-4.9,10.9-6.4,10.9c-1.2,0-2.1-0.8-2.9-2.4c-0.7-1.6-1.1-3.6-1.1-6.1c0-2.5,0.7-4.6,2.1-6.4c1.4-1.8,2.7-2.7,3.9-2.7
		c0.7,0,1.6,0.3,2.6,1c1,0.6,1.7,1.3,2.1,2C250.9,62.1,250.9,62.7,250.8,63.6z M275.8,74.7c-1.4,1.8-2.7,2.7-4,2.7
		c-2.3,0-4.1-0.6-5.3-1.8c0-0.7,0-1.7,0.1-2.9c2.7-8.7,5.1-13.1,7.2-13.1c1.2,0,2.2,0.8,2.9,2.3c0.7,1.6,1.1,3.6,1.1,6.3
		C277.8,70.7,277.1,72.9,275.8,74.7z"/>
	<path class="st2" d="M312.9,51.4c1.3,0,2.3-0.5,3-1.5s1.1-2.2,1.1-3.5c0-1.4-0.6-2-1.8-2c-0.7,0-1.4,0.3-2.2,0.9
		c-0.8,0.6-1.3,1.3-1.3,2C311.6,50,312,51.4,312.9,51.4z"/>
	<path class="st2" d="M392,62.3c-0.2,0-0.5,0.2-0.7,0.5c-0.2,0.4-0.5,0.9-0.8,1.7c-1.3,3.1-2.9,5.8-4.7,8.2c-0.9,1.1-1.8,2-2.9,2.6
		c-1.1,0.6-2.2,0.9-3.6,0.9s-2.5-0.6-3.5-1.9c-1-1.3-1.6-2.7-1.7-4.4c3.2-0.1,5.9-1,8.1-2.8c2.2-1.8,3.3-4,3.3-6.6
		c0-1.4-0.5-2.5-1.4-3.3c-1-0.8-2.2-1.2-3.7-1.2c-3.2,0-5.8,1.2-7.8,3.7c-1.8,2.2-2.8,5.3-3,9.3c-0.9,1.8-1.8,3.3-2.7,4.6
		c-1.3,1.8-2.3,2.8-3.1,2.8c-0.3,0-0.4-0.6-0.4-1.8c0-6.4,0.2-10.2,0.7-11.4c0.3-0.6,0.6-1.5,0.8-2.8c0.2-1.3,0.4-2.1,0.4-2.6
		c0-1.7-0.3-2.5-1-2.5s-1.4,0.5-2.4,1.4c-1,0.9-1.6,1.6-1.8,1.9c-0.2,0.4-0.6,2.7-1,7.1c-1.4,3.5-2.7,6.1-4.1,7.8
		c-1.4,1.8-2.5,2.6-3.6,2.6c-0.8,0-1.3-1.3-1.3-3.9c0-2.6,0.3-5.9,1-9.9c0.8-1.9,1.3-3.8,1.3-5.7c0-0.5-0.1-0.9-0.2-1.1
		c-0.1-0.2-0.5-0.3-1-0.3s-1.3,0.4-2.4,1.3c-1.1,0.9-1.9,1.5-2.3,1.9c-0.4,0.4-0.6,2.4-0.6,6.1c-0.8,1.2-1.8,2.9-2.9,5
		c-1.9,3.5-3.1,5.7-3.7,6.6c0-0.7,0.2-2.8,0.3-6.4c0.2-3.6,0.4-5.9,0.7-6.8c0.3-0.6,0.6-1.5,0.9-2.7c0.3-1.3,0.5-2.1,0.5-2.5
		c0-1.7-0.3-2.5-1-2.5c-1,0-2.5,1.1-4.5,3.4c-1.7-1.8-3.3-2.7-4.7-2.7c-3.2,0-5.9,1.4-7.9,4.1c-1.7,2.3-2.6,4.9-2.9,7.7
		c-1.1,2.3-2.2,4.2-3.3,5.7c-1.3,1.8-2.3,2.8-3.1,2.8c-0.3,0-0.4-0.6-0.4-1.8c0-6.1,0.3-9.9,0.9-11.4c0.3-0.6,0.6-1.5,0.8-2.8
		c0.2-1.3,0.4-2.1,0.4-2.6c0-1.7-0.3-2.5-1-2.5c-0.6,0-1.5,0.5-2.7,1.4c-1.1,1-1.8,1.6-2,2c-0.2,0.4-0.5,2.7-0.8,7.1
		c-0.1,0.8-0.1,1.6-0.1,2.3c-1,2.1-2.1,3.9-3.1,5.3c-1.3,1.8-2.3,2.8-3.1,2.8c-0.3,0-0.4-0.5-0.4-1.5s0.2-3.4,0.6-7.1
		c0.4-3.8,0.6-6.6,0.6-8.5c0-0.9-0.4-1.7-1.1-2.3c-0.7-0.6-1.5-0.9-2.5-0.9s-2,0.6-3.1,1.9c-1.2,1.3-2.6,3.3-4.2,6
		c-1.7,2.7-2.6,4.2-2.8,4.5c0-2.3,0-4,0.1-5.1c1.3-1.8,2.6-4.3,3.9-7.6c1.3-3.3,1.9-6.8,1.9-10.6c0-1.5-0.2-2.8-0.7-3.8
		c-0.4-1-0.9-1.4-1.3-1.4c-1,0-1.9,0.4-2.8,1.1c-4,3.1-6,10.2-6,21.5v3.8c0,1.5-0.1,3.7-0.4,6.7c-0.2,3-0.4,4.7-0.4,5.2
		c0,0.5,0.5,0.9,1.4,1.2c1,0.3,2,0.4,3,0.4c0.7,0,1.1-0.6,1.1-1.8l-0.1-2c0-1.4,0.1-2.8,0.4-4.3c0.1-0.8,1.3-2.8,3.4-5.8
		c2.2-3,3.5-4.5,4-4.5c0.5,0,0.8,0.7,0.8,2.2c0,1.4-0.1,3.6-0.4,6.6c-0.2,2.9-0.4,5-0.4,6.3c0,1.3,0.2,2.1,0.5,2.4
		c0.9,0.7,2.2,1.1,3.9,1.1c1.9,0,4.2-2.4,6.9-7.3c0,1.2-0.1,2.2-0.1,2.9c0,1.9,0.2,3,0.5,3.3c0.9,0.7,2.2,1.1,3.9,1.1
		c2,0,4.4-2.7,7.3-8.1c0.2,2.5,0.8,4.4,1.8,5.6c1.3,1.6,2.8,2.4,4.6,2.4s3.2-0.6,4.3-1.9c1.1-1.3,2.2-3.3,3.3-5.9l-0.8,14
		c-1.4,4-2.2,7.5-2.2,10.7c0,1,0.1,1.9,0.3,2.7c0.2,0.8,0.5,1.2,1,1.2c0.7,0,1.5-0.4,2.5-1.3c1-0.9,1.6-1.6,1.8-2.2
		c1.2-3.6,1.8-9,1.8-16.4c2.5-5.8,4.8-10.2,6.7-13.3l-0.3,6.4c0,2.2,0.3,3.8,0.9,4.7c0.6,0.9,1.7,1.4,3.5,1.4s3.3-0.8,4.7-2.3
		c1.4-1.6,2.8-3.8,4.2-6.8c-0.1,1.9-0.2,3.7-0.2,5.3s0.2,2.5,0.5,2.8c0.9,0.7,2.2,1.1,3.9,1.1c1.9,0,4.2-2.4,6.8-7.2
		c0.3,1.6,1,3.1,2,4.4c1.4,1.9,3.4,2.8,5.9,2.8c4.3,0,7.8-2.3,10.7-7c2.7-4.4,4-7.7,4-9.9C392.4,62.5,392.3,62.3,392,62.3z
		 M375.9,61.3c1.1-2.1,2.3-3.2,3.9-3.2c1.3,0,1.9,1,1.9,3c0,2-0.6,3.6-1.8,4.8c-1.2,1.2-3.1,2.1-5.7,2.5
		C374.3,65.8,374.8,63.5,375.9,61.3z M291.5,51.1c0.7-4.9,1.5-7.3,2.3-7.3c0.5,0,0.7,0.9,0.7,2.8c0,3.6-1.3,8.2-3.9,13.6
		C290.8,56.7,291.1,53.7,291.5,51.1z M335.2,66.5c-1.3,3.5-2.4,6-3.4,7.5c-0.9,1.5-1.9,2.2-3,2.2s-1.9-0.8-2.7-2.3
		c-0.7-1.6-1.1-3.6-1.1-6.1c0-2.5,0.7-4.7,2.1-6.6c1.4-1.9,2.7-2.9,3.9-2.9c0.7,0,1.5,0.3,2.4,0.8c0.9,0.5,1.7,1.1,2.2,1.7
		L335.2,66.5z"/>
</g>
<path class="st3" d="M535.5,434.4H306.4c-12.2,0-22.2-9.9-22.2-22.2V183.1c0-12.2,9.9-22.2,22.2-22.2h229.1
	c12.2,0,22.2,9.9,22.2,22.2v229.1C557.7,424.4,547.7,434.4,535.5,434.4z"/>
<g id="Calque_2_00000158725024123929710380000003655362476122611109_">
	<g id="Calque_3_00000007387935941931304950000006614128848688221104_">
		<rect x="359.8" y="323.3" class="st0" width="42.8" height="15.8"/>
		<path class="st0" d="M423.6,251.3c-4.9-2.5-9.7-1.5-14.1,1.6c-0.9,0.6-1.8,1.4-2.7,1.9c-1.3,0.8-2.8,1.2-4.3,1.1v-67.5
			c-7.9,0.1-15.4,3.2-21.2,8.5c-11.6,10.8-14.1,29.9-2.4,44l-3.3,3c-7.5-9.1-10.2-19.2-8.4-30.6c-4.3-1.4-10.2-1.6-15.3-0.4
			c-16.9,4-27.4,20.3-24.1,37.4c2.6,13.7,14.7,24.5,28.3,25.2c3,0.2,3.5,0.7,3.5,3.7c0,12.4,0,24.8,0,37.2v2h42.9V272
			c0.6,0,1.1,0,1.7,0.1c1.9,0.3,3.7,1.6,5.3,2.7c3.6,2.6,7.5,3.5,11.7,2.4c6-1.6,9.5-6.7,9.5-13.6
			C430.8,258.2,428.6,253.8,423.6,251.3z M382.2,304.5h-4.3v-29.3h4.3V304.5z"/>
		<rect x="438.4" y="323.3" class="st0" width="43.9" height="15.8"/>
		<path class="st0" d="M485,212.3c-3.4-0.3-6.9,0-10.2,1c1.3,12.4-1.9,24.4-7.8,29.6l-3.3-2.7c11.7-15.2,7.6-34.8-4.8-44.8
			c-5.8-4.7-13.1-7.2-20.5-7v64.3c1,0,1.9-0.2,2.7-0.8c1.4-0.9,2.7-2,4.1-2.9c7.9-5.2,17.7-3.2,22.5,4.7c3.6,5.9,3.8,12.1,1,18.4
			c-1.1,2.4-2.7,4.5-4.7,6.1v26.2h-4.4v-23.8c-2.5,0.8-5.2,1.1-7.8,0.7c-3.7-0.5-6.6-2.4-9.4-4.6c-1.2-1-2.5-1.9-4-1.7v43.5h44v-2
			c0-12.5,0-25,0-37.5c0-2.6,0.6-3.2,3.2-3.3c15.2-0.8,28.1-13.7,29-29C515.6,228.7,502.9,214,485,212.3z"/>
		<path class="st4" d="M379,240.9l-3.3,3c-7.5-9.1-10.2-19.2-8.4-30.6c-4.3-1.4-10.2-1.6-15.3-0.4c-16.9,4-27.4,20.3-24.1,37.4
			c2.6,13.7,14.7,24.5,28.3,25.2c3,0.2,3.5,0.7,3.5,3.7c0,12.4,0,24.8,0,37.2v2h42.9v4.8h-42.8v15.8h42.8v4.7h-43.9
			c-3.1,0-3.6-0.4-3.6-3.7v-57.3c0-2.5,0-2.5-2.4-2.9c-15.5-2.6-27.5-15-29.6-30.5c-2.7-18.5,9-36,27.1-40.6
			c5.9-1.5,12.2-1.5,18.1,0c6.3-15.6,17.4-24.8,34.2-25v4.5c-7.9,0.1-15.4,3.2-21.2,8.5C369.8,207.7,367.3,226.8,379,240.9z"/>
		<rect x="377.9" y="275.1" class="st4" width="4.3" height="29.3"/>
		<path class="st4" d="M518.5,237.2c-1.5-8.2-5.8-15.6-12.3-20.9c-9.6-7.9-20.6-10.2-32.5-7.6c-6.6-15.9-18-25.1-35.3-24.9v4.5
			c7.5-0.1,14.7,2.3,20.5,7c12.4,10,16.5,29.6,4.8,44.8l3.3,2.7c5.9-5.2,9-17.2,7.8-29.6c3.3-1,6.8-1.3,10.2-1
			c17.9,1.6,30.6,16.4,29.5,34.4c-0.9,15.3-13.8,28.2-29,29c-2.5,0.1-3.2,0.8-3.2,3.3c0,12.5,0,25,0,37.5v2h-44v4.8h43.9v15.8h-43.9
			v4.7h45c3,0,3.5-0.5,3.5-3.6v-59.9c10.5-1.3,19.1-6,25.3-14.6C518.4,257.1,520.4,247.5,518.5,237.2z"/>
		<path class="st4" d="M459.5,280.6v23.8h4.4v-26.2C462.6,279.3,461.1,280.1,459.5,280.6z"/>
		<path class="st0" d="M370.8,377.1c0,7.1,0.4,10.6,1.2,10.6s1.8-0.9,3.1-2.7c1.5-2.2,2.8-4.5,3.9-7c1.3-2.8,2.1-4.2,2.3-4.2
			s0.4,0.2,0.4,0.5c0,1.2-0.7,3.4-2.2,6.6c-3.2,6.7-6,10.1-8.5,10.1c-0.9,0-1.8-0.1-2.6-0.4c-0.5-0.1-1-0.3-1.4-0.7
			c-0.4-0.5-0.7-2.4-0.7-5.7c0-7.8,0.3-14.1,0.8-18.9c-2.6,2.6-4.9,5.4-6.9,8.4c0.8,2.9,1.3,5.9,1.4,9c0,2.5-0.5,4.5-1.5,5.9
			c-1,1.4-2.2,2.1-3.7,2.1c-1.8,0-2.6-1.7-2.6-5.1c0-2.3,0.9-5.4,2.8-9.3c-0.9-3.1-2.2-6.1-3.8-8.9c-0.7,4.1-1.8,8.1-3.2,12.1
			c-1.4,4.1-2.9,7.2-4.4,9.2c-1.5,2-3.3,3-5.4,3c-1.5,0-2.3-0.6-2.3-1.8c0-1,0.3-1.6,1-2c0.7-0.4,1.5-0.7,2.3-0.9
			c0.6-0.1,1.2-0.3,1.7-0.7c1.7-1.8,3.3-4.8,4.8-9.1c1.5-4.3,2.6-8.7,3.3-13.2c-1.9-2.4-2.8-4.2-2.8-5.4c0-1.1,0.3-2.2,0.9-3.1
			c0.6-0.9,1.7-1.4,3.1-1.4c0.4,0,0.8,0.6,1.1,1.7c0.3,1.1,0.5,2.3,0.4,3.5c2.6,3.7,4.6,7.7,6,11.9c2.4-3.9,5.2-7.6,8.3-11
			c1.3-8.2,2.9-12.3,4.7-12.3c0.6,0,1.2,0.4,1.9,1.4c0.6,0.8,1,1.8,1,2.8c0,2.9-1.3,5.9-3.8,9C371,364.7,370.8,370,370.8,377.1z
			 M357.3,379c-1,2.3-1.6,4.3-1.6,6.1c0,1.8,0.2,2.7,0.6,2.7c0.4,0,0.8-0.5,1-1.6c0.2-1.1,0.3-2.2,0.3-3.3
			C357.6,381.6,357.5,380.3,357.3,379z"/>
		<path class="st0" d="M398.1,391c-1.7,0-3-0.3-3.8-1c-0.3-0.3-0.4-1.1-0.4-2.3c0-1.2,0-2.9,0.1-5c-1.1,2.8-2.2,4.9-3.3,6.3
			c-1,1.3-2.6,2.1-4.3,2c-1.7,0-3.2-0.8-4.5-2.4c-1.3-1.6-1.9-4.2-1.9-7.7c-0.1-3.3,1-6.6,3-9.2c2-2.7,4.6-4,7.8-4
			c1.4,0,2.9,0.9,4.7,2.7c0.5-0.7,1.2-1.2,1.8-1.7c0.9-0.7,1.6-1,2.3-1c0.6,0,0.9,0.8,0.9,2.5c-0.1,0.9-0.2,1.7-0.4,2.5
			c-0.1,0.9-0.4,1.9-0.8,2.7c-0.4,1-0.6,4.5-0.6,10.6c0,1.2,0.1,1.8,0.4,1.8c0.7,0,1.8-1,3-2.8c1.5-2.2,2.8-4.5,3.8-6.9
			c1.3-2.8,2.1-4.2,2.3-4.2c0.3,0,0.4,0.2,0.4,0.5c0,1.2-0.6,3.1-1.9,5.8C403.3,387.4,400.4,391,398.1,391z M390.2,370.2
			c-1.2,0-2.5,0.9-3.9,2.7c-1.4,1.8-2.1,4-2,6.3c0,2.4,0.4,4.4,1.1,6c0.7,1.6,1.7,2.3,2.8,2.3c1.4,0,3.5-3.6,6.3-10.7
			c0-0.3,0.1-0.9,0.2-1.8c0.1-0.8,0.1-1.5,0.2-1.9c-0.5-0.8-1.2-1.5-2-2C392,370.6,391.1,370.3,390.2,370.2L390.2,370.2z"/>
		<path class="st0" d="M403.5,361c-0.6-0.4-0.9-1.1-0.9-1.9c0-0.9,0.5-1.7,1.2-2.1c0.7-0.5,1.4-0.7,2.2-0.8c0.6,0,1.3,0.2,1.8,0.6
			c0.5,0.3,0.7,0.9,0.7,1.4c0,2.2-1.1,3.3-3.3,3.3C404.6,361.6,404,361.4,403.5,361z M409,391c-1.7,0-3-0.3-3.8-1
			c-0.3-0.3-0.4-1.4-0.4-3.2s0.1-5,0.4-9.3c0.3-4.3,0.5-6.7,0.7-7c0.6-0.7,1.3-1.4,2-1.9c1.1-1,2-1.4,2.6-1.4c0.6,0,1,0.8,0.9,2.5
			c-0.1,0.8-0.2,1.7-0.4,2.5c-0.2,1-0.4,1.9-0.8,2.8c-0.6,1.2-0.8,5-0.8,11.2c0,1.2,0.1,1.8,0.4,1.8c0.7,0,1.7-1,3-2.8
			c1.5-2.2,2.8-4.5,3.8-6.9c1.3-2.8,2.1-4.2,2.3-4.2c0.3,0,0.4,0.2,0.4,0.5c0,1.2-0.6,3.1-1.9,5.8C414.2,387.4,411.3,391,409,391
			L409,391z M412.2,361c-0.6-0.4-0.9-1.1-0.9-1.9c0-0.9,0.5-1.7,1.2-2.1c0.7-0.5,1.5-0.7,2.3-0.8c0.6,0,1.2,0.2,1.7,0.6
			c0.4,0.3,0.7,0.9,0.7,1.4c0,2.2-1.1,3.3-3.2,3.3C413.3,361.6,412.7,361.4,412.2,361L412.2,361z"/>
		<path class="st4" d="M442.7,380c0.5-0.7,0.9-1.5,1.3-2.3c1.4-2.5,2.2-3.7,2.5-3.7c0.3,0,0.4,0.2,0.4,0.5c0,2.1-1.1,4.8-3.3,8
			c-4,5.8-9.3,8.8-15.9,8.8c-1.8,0-3.6-0.4-5.1-1.3c-1.5-0.8-2.7-1.9-3.7-3.3c-1.8-2.5-2.8-5.5-2.8-8.6c0-7.5,2-13.6,5.9-18.2
			c3.9-4.6,8.6-6.9,13.9-6.9c1.8-0.1,3.6,0.6,5,1.8c1.3,1.1,2,2.8,1.9,4.5c0,1.8-0.5,3.5-1.4,5.1c-0.9,1.6-2,2.3-3.3,2.3
			c-1.3,0-1.9-0.4-1.9-1.1c0-0.8,0.4-1.7,1.3-2.6c0.8-0.8,1.2-1.9,1.3-3c0-3.1-1.6-4.6-4.9-4.6c-3.3,0-6.2,2.2-8.9,6.6
			c-2.6,4.4-4,8.9-4,13.5c0,3.1,0.9,6.1,2.7,8.5c1.8,2.5,4.4,3.7,7.7,3.7C435.3,387.7,439.1,385.1,442.7,380z"/>
		<path class="st4" d="M448.2,387.2l0.1,2c0,1.2-0.3,1.8-1,1.8c-1,0-2-0.2-3-0.4c-1-0.3-1.4-0.7-1.4-1.2c0-0.5,0.1-2.2,0.4-5.1
			c0.2-2.9,0.4-5.1,0.4-6.6v-3.7c0-11.1,2-18.1,5.9-21.2c0.8-0.7,1.8-1,2.8-1c0.4,0,0.9,0.5,1.3,1.4c0.5,1.2,0.7,2.4,0.6,3.7
			c0,3.6-0.6,7.1-1.9,10.5c-1.3,3.2-2.5,5.7-3.8,7.5c0,1.1-0.1,2.8-0.1,5.1c0.2-0.3,1.1-1.7,2.7-4.4c1.2-2.1,2.6-4.1,4.2-5.9
			c1.1-1.3,2.2-1.9,3.1-1.9c0.9,0,1.8,0.3,2.4,0.9c0.7,0.6,1.1,1.4,1.1,2.3c-0.1,2.8-0.3,5.6-0.6,8.4c-0.4,3.7-0.6,6-0.6,7
			c0,1,0.1,1.5,0.4,1.5c0.7,0,1.7-1,3-2.8c1.5-2.2,2.8-4.5,3.9-6.9c1.3-2.8,2.1-4.2,2.3-4.2c0.3,0,0.4,0.2,0.4,0.5
			c0,1.2-0.6,3.1-1.9,5.8c-3.4,7.3-6.3,10.9-8.6,10.9c-1.7,0-3-0.3-3.8-1c-0.3-0.3-0.4-1.1-0.4-2.4c0-1.3,0.1-3.4,0.4-6.2
			c0.2-2.9,0.4-5,0.4-6.5c0-1.4-0.3-2.1-0.7-2.1s-1.8,1.5-3.9,4.4c-2.1,3-3.2,4.9-3.4,5.7C448.3,384.3,448.2,385.7,448.2,387.2z
			 M452.4,358.3c0-1.8-0.2-2.7-0.7-2.7c-0.8,0-1.5,2.4-2.3,7.2c-0.4,2.9-0.7,5.9-0.8,8.9C451.1,366.3,452.4,361.9,452.4,358.3
			L452.4,358.3z"/>
		<path class="st4" d="M474.8,391c-2.3,0.1-4.4-1-5.8-2.8c-1.4-1.8-2.2-4-2.1-6.3c0-4.7,1-8.3,3-10.7c1.9-2.4,4.7-3.7,7.7-3.6
			c1.3-0.1,2.6,0.4,3.6,1.2c1,0.8,1.5,2,1.4,3.3c0,2.6-1.1,4.8-3.3,6.5c-2.2,1.8-4.9,2.7-8,2.8c0.1,1.6,0.7,3.1,1.7,4.4
			c1,1.2,2.1,1.8,3.4,1.8c1.2,0,2.4-0.3,3.5-0.9c1.1-0.7,2.1-1.6,2.9-2.6c1.9-2.5,3.5-5.2,4.7-8.1c0.3-0.8,0.6-1.3,0.8-1.7
			c0.2-0.4,0.4-0.5,0.6-0.5c0.2,0,0.4,0.2,0.4,0.5c0,2.2-1.3,5.4-4,9.7C482.5,388.7,479,391,474.8,391z M471.3,379.8
			c2.6-0.4,4.4-1.3,5.6-2.5c1.2-1.3,1.8-3,1.8-4.7c0-1.9-0.6-2.9-1.9-2.9c-1.5,0-2.8,1-3.8,3.1C472,375,471.4,377.4,471.3,379.8z"/>
		<path class="st4" d="M495.5,377c2-0.5,4-1.2,5.9-2.1c0.8-0.5,1.6-0.9,2.5-1.3c0.3,0,0.4,0.2,0.4,0.6c0,0.4-0.4,1-1.3,1.6
			c-2.1,1.5-4.4,2.6-6.8,3.4c1.1,4.5,1.7,9,1.7,13.6c0,3.9-0.4,7.8-1.4,11.6c-0.4,1.9-1.2,3.6-2.4,5.1c-1,1.2-2.5,2-4.1,1.9
			c-1.2,0.1-2.4-0.6-2.9-1.8c-0.6-1.3-1-2.7-1.1-4.1c-0.1-2-0.2-5.3-0.2-9.9c0.1-5.6,0.4-11.1,1-16.6c-1.6-1.1-2.3-2.5-2.3-4.1
			c0-1.6,0.3-2.9,1-3.8c0.6-0.9,1.6-1.5,2.6-1.7c0.6-3.8,1.2-7,1.8-9.7c0.4-2.4,1.4-4.6,2.7-6.7c1.2-1.7,2.4-2.6,3.6-2.6
			c1.4,0,2.1,1.5,2.1,4.6c0,4.8-1.8,10.3-5.4,16.4C494.1,373.1,495,375,495.5,377z M488,371c-0.6,0.2-1,0.8-1,1.5
			c0,0.7,0.2,1.4,0.5,2C487.7,372.9,487.8,371.8,488,371z M491,380.2c-0.4,5.3-0.6,11.4-0.6,18.3c0,6.9,0.4,10.4,1.1,10.4
			c1.3,0,2.4-1.7,3.2-5.1c0.9-3.7,1.3-7.6,1.3-11.4c0-4.3-0.5-8.5-1.4-12.7C493.4,380,492.2,380.2,491,380.2z M492,373.1l-0.4,0.6
			l-0.3,3.3c0.5,0.2,1,0.3,1.5,0.3c0.4,0,0.8,0,1.1-0.1C493.5,375.8,492.8,374.4,492,373.1L492,373.1z M492,370.5
			c1.4-2.3,2.5-4.8,3.4-7.4c1-2.8,1.6-5.2,1.6-7.1c0-1.9-0.2-2.9-0.6-2.9c-0.7,0-1.4,1.6-2.2,4.7C493.2,362,492.4,366.2,492,370.5
			L492,370.5z"/>
	</g>
</g>
<g>
	<path class="st1" d="M787.9,549.2c-0.9,0-1.6,0.1-2.3,0.3c-0.6,0.2-1,0.4-1,0.7c0,0.2,0.1,0.2,0.3,0.2l1.9-0.1
		c1.2,0,2.1,0.5,2.8,1.6c0.6,1.1,0.9,2.2,0.9,3.5s-0.3,2.5-1,3.6c-0.3,0.6-0.8,1-1.5,1.4c-0.7,0.3-1.6,0.5-2.6,0.5
		c-1.1,0-2-0.4-2.7-1.3c-0.7-0.8-1.1-1.9-1.1-3.2c0-1.3,0.1-2.4,0.3-3.3c0.2-0.9,0.8-1.7,1.8-2.7c0.2-0.2,0.3-0.3,0.3-0.4
		c0-0.1-0.1-0.2-0.3-0.2c-0.6,0-1.3,0.3-2.1,1c-1.9,1.6-2.9,3.7-2.9,6.3c0,1.4,0.5,2.5,1.4,3.4c0.9,0.9,2.4,1.3,4.5,1.3
		c1.5,0,2.8-0.2,3.9-0.7c1.2-0.5,2.1-1.1,2.7-1.8c1.3-1.5,2-3.2,2-4.9c0-1.8-0.5-3.1-1.6-4S789.4,549.2,787.9,549.2z"/>
	<path class="st1" d="M796.4,557.7c0.3,0,0.5-0.1,0.7-0.3c0.2-0.2,0.3-0.5,0.5-1c0.2-0.5,0.4-1,0.8-1.5c0.4-0.6,1-1.3,1.7-2.3
		c0.8-1,1.3-1.5,1.5-1.5c0.2,0,0.3,0.5,0.3,1.5c0,1-0.2,2.5-0.7,4.5s-0.7,3.3-0.7,4c0,0.7,0.3,1.1,0.8,1.1c1,0,1.6-0.2,1.8-0.5
		c0.1-0.2,0.2-0.4,0.3-0.5s0.1-0.7,0.3-1.5c0.1-0.9,0.2-1.9,0.2-3c0-0.4,0.1-1.1,0.3-2.1c0.2-1,0.2-1.8,0.2-2.4
		c0-2.1-0.4-3.1-1.2-3.1c-0.8,0-1.6,0.4-2.5,1.3c-1.2,1.3-2.3,2.6-3.4,4.1s-1.6,2.4-1.6,2.7C795.7,557.5,795.9,557.7,796.4,557.7z"
		/>
</g>
</svg>
