<?xml version="1.0" encoding="utf-8"?>
<!-- Generator: Adobe Illustrator 25.4.1, SVG Export Plug-In . SVG Version: 6.00 Build 0)  -->
<svg version="1.1" id="Calque_1" xmlns="http://www.w3.org/2000/svg" xmlns:xlink="http://www.w3.org/1999/xlink" x="0px" y="0px"
	 viewBox="0 0 841.9 595.3" style="enable-background:new 0 0 841.9 595.3;" xml:space="preserve">
<style type="text/css">
	.st0{fill:#FFFFFF;}
	.st1{fill:#095228;}
	.st2{fill:#095228;stroke:#095228;stroke-miterlimit:10;}
	.st3{fill:#095228;stroke:#010202;stroke-miterlimit:10;}
	.st4{fill:#CBB89A;}
	.st5{fill:#ADD5AC;}
	.st6{fill:none;stroke:#000000;stroke-miterlimit:10;}
	.st7{fill:#FFFFFF;stroke:#000000;stroke-miterlimit:10;}
	.st8{fill:#CBB89A;stroke:#000000;stroke-miterlimit:10;}
	.st9{fill:#CBB89A;stroke:#010202;stroke-width:0.5;stroke-miterlimit:10;}
	.st10{fill:#FFFFFF;stroke:#010202;stroke-width:0.5;stroke-miterlimit:10;}
</style>
<rect x="123.3" y="-123.3" transform="matrix(6.123234e-17 -1 1 6.123234e-17 123.3071 718.5827)" class="st0" width="595.3" height="841.8"/>
<g>
	<path class="st1" d="M809.7,28.6v538H32.2v-538H809.7 M811.7,26.6H30.2v542h781.4V26.6L811.7,26.6z"/>
</g>
<g>
	<path class="st1" d="M786.8,549.2c-0.9,0-1.6,0.1-2.3,0.3c-0.6,0.2-1,0.4-1,0.7c0,0.2,0.1,0.2,0.3,0.2l1.9-0.1
		c1.2,0,2.1,0.5,2.8,1.6c0.6,1.1,0.9,2.2,0.9,3.5s-0.3,2.5-1,3.6c-0.3,0.6-0.8,1-1.5,1.4c-0.7,0.3-1.6,0.5-2.6,0.5
		c-1.1,0-2-0.4-2.7-1.3c-0.7-0.8-1.1-1.9-1.1-3.2c0-1.3,0.1-2.4,0.3-3.3c0.2-0.9,0.8-1.7,1.8-2.7c0.2-0.2,0.3-0.3,0.3-0.4
		c0-0.1-0.1-0.2-0.3-0.2c-0.6,0-1.3,0.3-2.1,1c-1.9,1.6-2.9,3.7-2.9,6.3c0,1.4,0.5,2.5,1.4,3.4c0.9,0.9,2.4,1.3,4.5,1.3
		c1.5,0,2.8-0.2,3.9-0.7c1.2-0.5,2.1-1.1,2.7-1.8c1.3-1.5,2-3.2,2-4.9c0-1.8-0.5-3.1-1.6-4S788.3,549.2,786.8,549.2z"/>
	<path class="st1" d="M807.3,556.9c-0.7-0.3-1.5-0.4-2.5-0.4l0.3-2.8c0-0.2-0.1-0.5-0.4-0.7c-0.3-0.2-0.5-0.3-0.8-0.3
		c-0.6,0-1,1.3-1.4,4c-0.5,0-1.3,0.2-2.6,0.3c-1.3,0.2-2.5,0.3-3.6,0.3c0.7-1.2,1.6-2.4,2.6-3.7c1.1-1.3,1.9-2.2,2.5-2.8
		c0.6-0.6,0.9-1.2,0.9-1.8c0-0.2-0.1-0.4-0.2-0.6c-0.2-0.2-0.4-0.3-0.8-0.3s-0.7,0.1-1,0.3c-0.3,0.2-0.5,0.4-0.6,0.5
		c-0.1,0.2-0.2,0.4-0.3,0.8c-0.1,0.3-0.2,0.6-0.3,0.9c-0.1,0.3-0.8,1.4-2.1,3.3c-1.3,2-2.1,3.2-2.3,3.6c-0.6,0.1-1,0.3-1,0.4
		s0.1,0.3,0.4,0.4c0.2,0.1,0.6,0.2,1,0.2l7-0.3c-0.3,1.3-0.5,2.4-0.5,3.2c0,0.5,0.2,0.8,0.7,0.8c0.7,0,1.2-0.1,1.6-0.3
		c0.4-0.2,0.6-0.4,0.6-0.7c0-1.4,0-2.3,0.1-3c0.4,0,0.8,0,1.3,0.1c0.5,0.1,0.9,0.1,1.3,0.1c0.8,0,1.2-0.2,1.2-0.6
		C808.3,557.5,808,557.2,807.3,556.9z"/>
</g>
<path class="st2" d="M193.1,72.3c0-0.4-0.2-0.6-0.6-0.6c-0.2,0-0.4,0.1-0.5,0.2c-2.7,2-5,3.8-7,5.4c-0.1-0.1-0.3-0.4-0.6-0.7
	l-0.6-0.8c-0.1-0.2-0.3-0.4-0.5-0.7c-0.2-0.3-0.4-0.6-0.5-0.9c-0.1-0.2-0.2-0.6-0.3-0.9c-0.1-0.4-0.1-0.9-0.1-1.5
	c0-0.6,0.4-1.5,1.1-2.5c0.7-1,1.5-1.5,2.2-1.5s1.2,0.3,1.2,1l-0.1,0.8c0,0.3,0.2,0.5,0.7,0.5c0.6,0,0.9-0.6,0.9-1.9
	c0-0.6-0.3-1.1-0.8-1.7c-0.6-0.5-1.4-0.8-2.4-0.8c-1.6,0-3.1,0.7-4.6,2.1c-1.4,1.4-2.1,3.2-2.1,5.4c0,0.8,0.2,1.6,0.5,2.4
	c-0.1,0.1-0.1,0.2-0.2,0.4c-1.1,2.4-2.2,4.4-3.4,6c-1.1,1.6-2,2.4-2.7,2.4c-0.2,0-0.3-0.6-0.3-1.9c0-1.3,0.1-3,0.4-5.2
	c0.2-2.2,0.4-3.5,0.4-3.8c0-0.4-0.1-0.7-0.3-1.1s-0.5-0.5-0.8-0.5l-3.1,0.3c-0.3,0-0.6-0.1-0.7-0.2c0.5-0.9,0.8-1.8,0.8-2.7
	c0-0.9-0.3-1.7-0.9-2.5c-0.6-0.7-1.2-1.1-1.9-1.1c-0.7,0-1.2,0.3-1.6,1s-0.6,1.5-0.6,2.4c0,0.9,0.2,1.7,0.7,2.4
	c0.4,0.7,1,1.2,1.7,1.5c-0.3,0.6-0.8,1.5-1.4,2.8c-1.1,2.4-2.2,4.4-3.4,6c-1.1,1.6-2,2.4-2.7,2.4c-0.2,0-0.3-0.5-0.3-1.5
	c0-5.5,0.2-8.7,0.6-9.8c0.3-0.5,0.5-1.3,0.7-2.4c0.2-1.1,0.3-1.8,0.3-2.2c0-1.4-0.3-2.1-0.8-2.1s-1.2,0.4-2.1,1.2
	c-0.8,0.8-1.3,1.3-1.6,1.6c-0.2,0.3-0.5,2.3-0.8,6.1c-1.2,3-2.3,5.2-3.5,6.7c-1.2,1.5-2.2,2.3-3,2.3c-0.7,0-1.1-1.1-1.1-3.3
	c0-2.2,0.3-5.1,0.8-8.5c0.7-1.7,1.1-3.3,1.1-4.9c0-0.5-0.1-0.8-0.2-0.9c-0.1-0.1-0.4-0.2-0.8-0.2c-0.4,0-1.1,0.4-2.1,1.1
	c-1,0.7-1.6,1.3-2,1.7c-0.4,0.4-0.6,2.6-0.6,6.6l0,0.8c-0.9,1.7-1.9,3.3-2.9,4.7c-0.8,1-1.6,1.7-2.5,2.3c-0.9,0.5-1.9,0.8-3,0.8
	s-2.1-0.5-3-1.6c-0.8-1.1-1.3-2.3-1.5-3.8c2.7-0.1,5.1-0.9,7-2.4c1.9-1.5,2.8-3.4,2.8-5.7c0-1.2-0.4-2.2-1.2-2.8
	c-0.8-0.7-1.9-1-3.2-1c-2.7,0-5,1.1-6.7,3.2c-1.5,1.8-2.4,4.5-2.6,7.8c-0.8,1.6-1.6,2.9-2.4,4c-1.1,1.6-2,2.4-2.7,2.4
	c-0.4,0-0.6-1.2-0.6-3.5c0-2.3,0.1-5,0.2-8.2c3-6.1,4.5-11.5,4.5-16.4c0-0.7-0.2-1.4-0.5-2.1c-0.3-0.7-0.8-1.1-1.5-1.1
	c-2.9,0-4.7,3-5.5,9c-0.9,6.6-1.3,11.9-1.4,16c-0.8,1.5-1.5,2.8-2.3,3.9c-1.1,1.6-2,2.4-2.7,2.4c-0.2,0-0.3-0.5-0.3-1.5
	c0-5.5,0.2-8.7,0.6-9.8c0.3-0.5,0.5-1.3,0.7-2.4c0.2-1.1,0.3-1.8,0.3-2.2c0-1.4-0.3-2.1-0.8-2.1c-0.5,0-1.2,0.4-2.1,1.2
	c-0.8,0.8-1.3,1.3-1.6,1.6c-0.2,0.3-0.5,2.3-0.8,6.1c-1.2,3-2.3,5.2-3.5,6.7c-1.2,1.5-2.2,2.3-3,2.3c-0.7,0-1.1-1.1-1.1-3.3
	c0-2.2,0.3-5.1,0.8-8.5c0.7-1.7,1.1-3.3,1.1-4.9c0-0.5-0.1-0.8-0.2-0.9c-0.1-0.1-0.4-0.2-0.8-0.2c-0.4,0-1.1,0.4-2.1,1.1
	c-1,0.7-1.6,1.3-2,1.7c-0.3,0.3-0.5,1.7-0.5,4.2c0,0-0.1,0-0.1,0.1c-0.6,0.4-1.6,0.8-3.1,1.3c0-2.5-0.7-4.5-1.9-6
	c-1.2-1.5-2.6-2.3-4-2.3c-1.4,0-2.7,0.4-3.8,1.1c-2.3,0-4.2,1.1-5.7,3.3c-1.4,2.1-2.1,4.3-2.2,6.6c0,0.1-0.1,0.1-0.1,0.2
	c-3.1,4.5-6.4,6.8-9.8,6.8c-2.9,0-5.1-1.1-6.7-3.2c-1.6-2.2-2.4-4.6-2.4-7.4c0-4,1.1-7.9,3.4-11.7c2.3-3.8,4.9-5.7,7.7-5.7
	c2.8,0,4.3,1.3,4.3,4c0,0.9-0.4,1.7-1.1,2.6c-0.7,0.9-1.1,1.6-1.1,2.3c0,0.6,0.6,0.9,1.7,0.9c1.1,0,2.1-0.7,2.8-2
	c0.8-1.4,1.2-2.8,1.2-4.4c0-1.6-0.6-2.9-1.7-3.9c-1.1-1-2.6-1.6-4.3-1.6c-4.7,0-8.7,2-12.1,6c-3.4,4-5.1,9.3-5.1,15.8
	c0,2.6,0.8,5.1,2.4,7.4c0.8,1.2,1.9,2.1,3.2,2.9c1.4,0.8,2.8,1.1,4.5,1.1c5.5,0,10-2.4,13.4-7.1c0.3,1.5,0.8,2.8,1.6,4
	c1.2,1.9,3,2.8,5.4,2.8c3.2,0,5.7-1,7.4-2.9c1.7-2,2.7-4.5,3-7.7c1.2-0.5,2.3-1,3.3-1.6c0,0.2,0,0.4,0,0.7l-0.3,6.3
	c0,1.9,0.2,3.2,0.7,4c0.5,0.8,1.5,1.2,3,1.2c1.5,0,2.8-0.7,4-2c1.2-1.3,2.4-3.3,3.6-5.8c-0.1,1.7-0.2,3.2-0.2,4.5
	c0,1.4,0.1,2.2,0.4,2.4c0.8,0.6,1.9,0.9,3.3,0.9c1.6,0,3.5-2,5.7-6c0.1,3,0.2,4.7,0.5,5.1c0.1,0.2,0.6,0.4,1.3,0.6
	c0.7,0.2,1.5,0.3,2.3,0.3c1.7,0,3.6-2.1,5.9-6.3c0.2,1.4,0.8,2.7,1.7,3.9c1.2,1.6,2.9,2.4,5,2.4c3.6,0,6.7-2,9.2-6
	c0.2-0.3,0.4-0.6,0.5-0.9l-0.1,1.8c0,1.9,0.2,3.2,0.7,4c0.5,0.8,1.5,1.2,3,1.2s2.8-0.7,4-2c1.2-1.3,2.4-3.3,3.6-5.8
	c-0.1,1.7-0.2,3.2-0.2,4.5c0,1.4,0.1,2.2,0.4,2.4c0.8,0.6,1.9,0.9,3.3,0.9c2,0,4.5-3.2,7.5-9.5c0.9-1.8,1.4-3.2,1.6-4.3
	c0.6,0.1,1.2,0.2,1.9,0.2c-0.6,2.1-1,4.7-1,7.7c0,3,0.1,4.6,0.4,4.9c0.8,0.6,1.9,0.9,3.3,0.9c2,0,4.5-3.2,7.5-9.5
	c0.1-0.3,0.2-0.5,0.3-0.7c0.1,0.1,0.2,0.3,0.3,0.4c0.2,0.3,0.6,0.7,1.1,1.2c0.5,0.5,0.8,0.9,1,1.1c-2.5,2.4-3.7,4.2-3.7,5.4
	c0,1.6,0.8,2.4,2.5,2.4s3.1-0.5,4.2-1.5c1.1-1,1.6-2.2,1.6-3.7c0-1.4-0.4-2.7-1.2-3.9c2.1-1.8,4.4-3.5,6.8-5
	C192.9,73,193.1,72.7,193.1,72.3z M132.3,71.4c0.9-1.8,2-2.7,3.3-2.7c1.1,0,1.6,0.8,1.6,2.5c0,1.7-0.5,3.1-1.6,4.1
	c-1,1.1-2.7,1.8-4.9,2.1C131,75.2,131.4,73.2,132.3,71.4z M124.1,54.9c0.3,0,0.5,0.6,0.5,1.8c0,3-1,7.1-2.9,12.2
	C122.2,59.6,123,54.9,124.1,54.9z M88.4,82.5c-0.9,1.4-2.2,2.1-3.8,2.1c-1.6,0-2.8-0.8-3.6-2.5c-0.8-1.6-1.1-3.4-1.1-5.2
	c0-3.8,0.8-6.3,2.4-7.6c-0.4,0.9-0.6,2-0.6,3.2c0,1.2,0.6,2.4,1.8,3.4c1.2,1,2.7,1.6,4.4,1.6l2-0.1C89.8,79.5,89.3,81.1,88.4,82.5z
	 M89.4,75.4c-1.3,0-2.4-0.4-3.4-1.3c-1-0.9-1.4-2-1.4-3.4c0-0.6,0.2-1.2,0.5-1.8c0.3-0.5,0.8-0.8,1.4-0.8c1.2,0,2.1,0.8,2.6,2.3
	c0.5,1.5,0.9,3.2,0.9,5H89.4z M183.8,85c-0.4,0.5-0.8,0.7-1.4,0.7c-0.9,0-1.4-0.5-1.4-1.4c0-0.9,0.8-2.1,2.3-3.6
	C184.4,82.5,184.6,83.9,183.8,85z"/>
<path class="st7" d="M469.7,249.8V300c0,11.9-9.6,21.5-21.5,21.5h-50.2c-11.9,0-21.5-9.6-21.5-21.5v-50.2c0-11.9,9.6-21.5,21.5-21.5
	h50.2C460.1,228.3,469.7,237.9,469.7,249.8z"/>
<path class="st8" d="M282,249.8V300c0,11.9-9.6,21.5-21.5,21.5h-50.2c-11.9,0-21.5-9.6-21.5-21.5v-50.2c0-11.9,9.6-21.5,21.5-21.5
	h50.2C272.3,228.3,282,237.9,282,249.8z"/>
<path class="st3" d="M657.5,249.8V300c0,11.9-9.6,21.5-21.5,21.5h-50.2c-11.9,0-21.5-9.6-21.5-21.5v-50.2c0-11.9,9.6-21.5,21.5-21.5
	H636C647.9,228.3,657.5,237.9,657.5,249.8z"/>
<g>
	<path class="st9" d="M182.6,344.1c-1,0-2.8,0.1-5.2,0.2c0.2-2.3,0.4-4.1,0.6-5.4c0.2-0.4,0.3-0.9,0.3-1.2c0-0.4-0.2-0.6-0.6-0.6
		c-0.4,0-0.7,0.5-1,1.6c-0.3,1-0.7,3-1.1,5.8c-2.2,0.1-4.4,0.3-6.6,0.5c0.2-1.9,0.3-3.1,0.4-3.6c0.1-0.5,0.2-0.9,0.3-1.2
		c0.1-0.3,0.3-0.6,0.4-1c0.1-0.4,0.2-0.8,0.2-1.1c0-0.3-0.1-0.6-0.3-0.8c-0.2-0.2-0.4-0.2-0.6-0.2c-0.4,0-0.7,0.5-1,1.5
		c-0.3,0.9-0.7,3.1-1.2,6.5l-2.6,0.3c-0.6,0.1-1.3,0.2-2,0.4c-0.7,0.2-1.1,0.4-1.1,0.6c0,0.5,0.5,0.8,1.4,0.8l4.1-0.5
		c-0.3,2.4-0.7,4.4-1,6.1l-2.6,0.2c-0.7,0.1-1.3,0.2-2,0.4c-0.7,0.2-1.1,0.4-1.1,0.6c0,0.6,0.5,0.8,1.5,0.8c0.5,0,1.2-0.1,2.1-0.3
		c0.9-0.2,1.5-0.3,1.8-0.3l-0.6,2.2c-0.2,0.6-0.7,2-1.7,4.1c-1,2.1-1.4,3.5-1.4,4.4c0,0.3,0.3,0.5,0.8,0.7c0.5,0.2,1,0.2,1.4,0.2
		c1,0,1.9-1.3,2.5-3.8c0.6-2.8,1.1-5.4,1.5-7.9l4.2-0.1c0.6,0,1.1,0,1.6,0l-0.6,2.4c-0.1,0.5-0.6,1.8-1.5,4
		c-0.8,2.1-1.3,3.6-1.3,4.5c0,0.3,0.3,0.5,0.7,0.7c0.4,0.2,0.9,0.2,1.3,0.2c0.9,0,1.7-1.3,2.2-3.9c0.5-2.6,1-5.2,1.4-7.6
		c1.2,0.1,2.3,0.2,3.3,0.2c1,0,1.7-0.2,2.2-0.5c0.5-0.3,0.8-0.6,1-0.9c0.2-0.3,0.3-0.5,0.3-0.7c0-0.4-0.5-0.7-1.5-0.7
		c-1,0-2.7,0.1-5,0.2c0.2-1.2,0.4-2.9,0.7-5.1c1.7,0.3,3,0.4,3.8,0.4c0.8,0,1.5-0.2,2-0.6c0.5-0.4,0.8-0.7,1-1.1
		c0.2-0.4,0.3-0.6,0.3-0.8C184.2,344.3,183.6,344.1,182.6,344.1z M174.6,350.3c-0.2,0.8-0.3,1.3-0.3,1.7l-5.9,0.5
		c0.2-1.3,0.3-3.3,0.6-5.9l4.7-0.1c0.8,0,1.4,0,1.6,0.1C175,348,174.8,349.2,174.6,350.3z"/>
	<path class="st9" d="M207.7,353.3c-0.2,0-0.8,0.9-1.8,2.7c-0.4,0.8-0.7,1.3-0.9,1.6c-2.6,3.8-5.3,5.7-8.1,5.7
		c-2.4,0-4.2-0.9-5.6-2.7c-1.3-1.8-2-3.9-2-6.2c0-3.4,1-6.6,2.9-9.8c1.9-3.2,4.1-4.8,6.4-4.8c2.4,0,3.6,1.1,3.6,3.3
		c0,0.7-0.3,1.4-0.9,2.2c-0.6,0.7-0.9,1.4-0.9,1.9c0,0.5,0.5,0.8,1.4,0.8c0.9,0,1.7-0.6,2.4-1.7c0.7-1.1,1-2.4,1-3.7
		s-0.5-2.4-1.4-3.3c-0.9-0.9-2.2-1.3-3.6-1.3c-3.9,0-7.3,1.7-10.1,5c-2.8,3.3-4.3,7.7-4.3,13.2c0,2.2,0.7,4.2,2,6.2
		c0.7,1,1.6,1.8,2.7,2.4c1.1,0.6,2.4,0.9,3.7,0.9c4.8,0,8.6-2.1,11.5-6.4c1.6-2.4,2.4-4.3,2.4-5.8
		C208,353.4,207.9,353.3,207.7,353.3z"/>
	<path class="st9" d="M227.7,345.6c0-1.4-0.6-2.7-1.7-3.8c-1.2-1.1-2.5-1.9-4.1-2.4c-1.6-0.5-3-0.7-4.2-0.7s-2.2,0-3,0.1
		c0-1.8-0.2-2.6-0.7-2.6c-1.2,0-2,1.1-2.5,3.2c-4.2,1-6.4,2.9-6.4,5.7c0,0.3,0.1,0.6,0.3,0.9c0.2,0.3,0.6,0.4,1.1,0.4
		c0.5,0,1-0.2,1.3-0.6c0.3-0.4,0.6-1.1,0.7-2.2c0.1-1.3,1-2.2,2.7-2.7c-0.1,0.9-0.2,2.3-0.2,4.3c0,1.9-0.1,4.5-0.3,7.7
		c-0.2,3.2-0.3,5-0.3,5.4c0,1.8,0.2,2.9,0.6,3.2c0.4,0.4,1.2,0.6,2.6,0.6c0.3,0,0.5-1.2,0.5-3.6c0-6.2,0.1-10.8,0.3-13.8
		c0.1-2,0.2-3.5,0.2-4.4c0.2,0,0.5,0,1,0c2.1,0,4.1,0.6,5.9,1.9c1.8,1.2,2.8,2.9,2.8,5c0,1.7-0.6,3.2-1.9,4.6c-1.3-0.7-2.5-1-3.7-1
		c-1.1,0-2,0.2-2.6,0.5c-0.6,0.4-0.9,0.8-0.9,1.2c0,1.5,1.2,2.3,3.6,2.3c1,0,2.1-0.3,3.2-0.8c1,1.3,1.5,2.8,1.5,4.3
		c0,1.6-0.7,2.9-2,4.1c-1.3,1.2-2.8,1.8-4.5,1.8c-0.7,0-1.8-0.2-3.2-0.7c-1.4-0.4-2.3-0.7-2.7-0.7c-1.3,0-1.9,0.3-1.9,1
		c0,0.4,0.1,0.7,0.4,1c0.2,0.3,0.5,0.4,0.7,0.5c1.1,0.3,2.9,0.5,5.5,0.5c3.7,0,6.7-1.1,8.9-3.4c1.2-1.3,1.8-2.8,1.8-4.8
		c0-1.9-0.9-3.6-2.6-4.9C226.4,350.6,227.7,348.2,227.7,345.6z M219.4,353.3c-1.5,0-2.3-0.4-2.3-1.1c0-0.3,0.4-0.5,1.2-0.5
		c0.8,0,1.7,0.4,2.7,1.2C220.5,353.2,220,353.3,219.4,353.3z"/>
	<path class="st9" d="M251.5,345.6c0-1.4-0.6-2.7-1.7-3.8c-1.2-1.1-2.5-1.9-4.1-2.4c-1.6-0.5-3-0.7-4.2-0.7c-1.2,0-2.2,0-3,0.1
		c0-1.8-0.2-2.6-0.7-2.6c-1.2,0-2,1.1-2.5,3.2c-4.2,1-6.4,2.9-6.4,5.7c0,0.3,0.1,0.6,0.3,0.9c0.2,0.3,0.6,0.4,1.1,0.4
		c0.5,0,1-0.2,1.3-0.6c0.3-0.4,0.6-1.1,0.7-2.2c0.1-1.3,1-2.2,2.7-2.7c-0.1,0.9-0.2,2.3-0.2,4.3c0,1.9-0.1,4.5-0.3,7.7
		c-0.2,3.2-0.3,5-0.3,5.4c0,1.8,0.2,2.9,0.6,3.2s1.2,0.6,2.6,0.6c0.3,0,0.5-1.2,0.5-3.6c0-6.2,0.1-10.8,0.3-13.8
		c0.1-2,0.2-3.5,0.2-4.4c0.2,0,0.5,0,1,0c2.1,0,4.1,0.6,5.9,1.9c1.8,1.2,2.8,2.9,2.8,5c0,1.7-0.6,3.2-1.9,4.6c-1.3-0.7-2.5-1-3.7-1
		c-1.1,0-2,0.2-2.6,0.5c-0.6,0.4-0.9,0.8-0.9,1.2c0,1.5,1.2,2.3,3.6,2.3c1,0,2.1-0.3,3.2-0.8c1,1.3,1.5,2.8,1.5,4.3
		c0,1.6-0.7,2.9-2,4.1c-1.3,1.2-2.8,1.8-4.5,1.8c-0.7,0-1.8-0.2-3.2-0.7c-1.4-0.4-2.3-0.7-2.7-0.7c-1.3,0-1.9,0.3-1.9,1
		c0,0.4,0.1,0.7,0.4,1c0.2,0.3,0.5,0.4,0.7,0.5c1.1,0.3,2.9,0.5,5.5,0.5c3.7,0,6.7-1.1,8.9-3.4c1.2-1.3,1.8-2.8,1.8-4.8
		c0-1.9-0.9-3.6-2.6-4.9C250.2,350.6,251.5,348.2,251.5,345.6z M243.3,353.3c-1.5,0-2.3-0.4-2.3-1.1c0-0.3,0.4-0.5,1.2-0.5
		c0.8,0,1.7,0.4,2.7,1.2C244.4,353.2,243.8,353.3,243.3,353.3z"/>
	<path class="st9" d="M264,350.5c0.2-0.2,0.9-0.7,2.3-1.6c1.3-0.9,2.2-1.7,2.6-2.3l0.8-1.3c0.4-0.6,0.6-1.4,0.6-2.6
		c0-1.1-0.5-2-1.5-2.7c-1-0.7-2-1-3.1-1c-1.1,0-2,0.2-2.7,0.5c-0.7,0.4-1.1,0.8-1.1,1.2c0,0.4,0.1,0.7,0.4,0.7c0.2,0,0.5-0.1,1-0.3
		c0.5-0.2,1.1-0.3,1.6-0.3c0.6,0,1.2,0.3,1.7,0.9c0.5,0.6,0.8,1.4,0.8,2.4c0,1.8-1.6,3.6-4.8,5.7c-2.7-1.6-4-3.3-4-5.3
		c0-1.3,0.5-2.5,1.5-3.6c0.6-0.7,0.9-1.2,0.9-1.5c0-0.3-0.1-0.4-0.4-0.4c-0.3,0-0.8,0.3-1.6,0.8c-2.1,1.5-3.2,3.2-3.2,5.2
		c0,0.9,0.3,1.7,0.8,2.5c0.5,0.8,1.1,1.4,1.6,1.8c0.6,0.4,1.3,1,2.4,1.6c-4.9,2.9-7.3,6.1-7.3,9.4c0,1.8,0.7,3.2,2.1,4.1
		c1.4,0.9,3.1,1.3,4.9,1.3c3,0,5.5-0.6,7.3-1.8c1.8-1.2,2.7-3,2.7-5.4C270.3,355.7,268.2,353,264,350.5z M265.2,362.9
		c-0.9,1.1-2.1,1.6-3.6,1.6c-1.5,0-2.7-0.4-3.6-1.2c-0.9-0.8-1.3-1.8-1.3-3c0-2.5,1.8-5.3,5.4-8.3c3,2.2,4.5,4.6,4.5,7.1
		C266.6,360.6,266.1,361.8,265.2,362.9z"/>
	<path class="st9" d="M287.8,341.5c-0.5-0.7-1.3-1.3-2.2-1.8c-0.9-0.5-2-0.7-3.2-0.7c-2.2,0-4.2,0.9-5.8,2.8c-1.6,1.8-2.4,4-2.4,6.4
		c0,1.9,0.5,3.5,1.5,5c1,1.5,2.4,2.2,4.2,2.2c1.8,0,3.2-0.3,4.2-0.9c1.1-0.6,1.6-1.2,1.6-1.8c0-0.3-0.1-0.4-0.3-0.4
		c-0.2,0-0.8,0.2-1.7,0.7c-1,0.4-2,0.7-3,0.7c-1,0-1.8-0.3-2.3-1c-0.8-1.1-1.3-2.8-1.3-5c0-1.8,0.5-3.4,1.5-4.8
		c1-1.4,2.1-2.1,3.4-2.1c3,0,4.5,3.3,4.5,10c0,3-0.4,5.7-1.1,8.4c-0.4,1.5-1.1,2.8-2,3.7c-0.9,0.9-2,1.4-3.4,1.4
		c-0.6,0-1.2-0.2-1.6-0.6c-0.5-0.4-0.8-0.8-1-1.2c-0.2-0.5-0.5-0.9-1-1.2c-0.4-0.4-1-0.6-1.6-0.6c-0.6,0-0.9,0.5-0.9,1.5
		c0,1,0.6,1.9,1.6,2.7c1.1,0.8,2.3,1.2,3.7,1.2c7.3,0,11-5.3,11-15.9c0-2.2-0.3-4.1-0.9-5.8C288.8,343.1,288.3,342.2,287.8,341.5z"
		/>
	<path class="st9" d="M309.3,344.1c-0.4-1-0.8-1.9-1.4-2.6c-0.5-0.7-1.3-1.3-2.2-1.8c-0.9-0.5-2-0.7-3.2-0.7c-2.2,0-4.2,0.9-5.8,2.8
		c-1.6,1.8-2.4,4-2.4,6.4c0,1.9,0.5,3.5,1.5,5c1,1.5,2.4,2.2,4.2,2.2c1.8,0,3.2-0.3,4.2-0.9c1.1-0.6,1.6-1.2,1.6-1.8
		c0-0.3-0.1-0.4-0.3-0.4c-0.2,0-0.8,0.2-1.7,0.7c-1,0.4-2,0.7-3,0.7c-1,0-1.8-0.3-2.3-1c-0.8-1.1-1.3-2.8-1.3-5
		c0-1.8,0.5-3.4,1.5-4.8c1-1.4,2.1-2.1,3.4-2.1c3,0,4.5,3.3,4.5,10c0,3-0.4,5.7-1.1,8.4c-0.4,1.5-1.1,2.8-2,3.7
		c-0.9,0.9-2,1.4-3.4,1.4c-0.6,0-1.2-0.2-1.6-0.6c-0.5-0.4-0.8-0.8-1-1.2c-0.2-0.5-0.5-0.9-1-1.2c-0.4-0.4-1-0.6-1.6-0.6
		c-0.6,0-0.9,0.5-0.9,1.5c0,1,0.6,1.9,1.6,2.7c1.1,0.8,2.3,1.2,3.7,1.2c7.3,0,11-5.3,11-15.9C310.2,347.7,309.9,345.8,309.3,344.1z"
		/>
</g>
<g>
	<path class="st10" d="M370.4,344.1c-1,0-2.8,0.1-5.2,0.2c0.2-2.3,0.4-4.1,0.6-5.4c0.2-0.4,0.3-0.9,0.3-1.2c0-0.4-0.2-0.6-0.6-0.6
		c-0.4,0-0.7,0.5-1,1.6c-0.3,1-0.7,3-1.1,5.8c-2.2,0.1-4.4,0.3-6.6,0.5c0.2-1.9,0.3-3.1,0.4-3.6c0.1-0.5,0.2-0.9,0.3-1.2
		c0.1-0.3,0.3-0.6,0.4-1c0.1-0.4,0.2-0.8,0.2-1.1c0-0.3-0.1-0.6-0.3-0.8c-0.2-0.2-0.4-0.2-0.6-0.2c-0.4,0-0.7,0.5-1,1.5
		c-0.3,0.9-0.7,3.1-1.2,6.5l-2.6,0.3c-0.6,0.1-1.3,0.2-2,0.4c-0.7,0.2-1.1,0.4-1.1,0.6c0,0.5,0.5,0.8,1.4,0.8l4.1-0.5
		c-0.3,2.4-0.7,4.4-1,6.1l-2.6,0.2c-0.7,0.1-1.3,0.2-2,0.4c-0.7,0.2-1.1,0.4-1.1,0.6c0,0.6,0.5,0.8,1.5,0.8c0.5,0,1.2-0.1,2.1-0.3
		c0.9-0.2,1.5-0.3,1.8-0.3l-0.6,2.2c-0.2,0.6-0.7,2-1.7,4.1c-1,2.1-1.4,3.5-1.4,4.4c0,0.3,0.3,0.5,0.8,0.7c0.5,0.2,1,0.2,1.4,0.2
		c1,0,1.9-1.3,2.5-3.8c0.6-2.8,1.1-5.4,1.5-7.9l4.2-0.1c0.6,0,1.1,0,1.6,0l-0.6,2.4c-0.1,0.5-0.6,1.8-1.5,4
		c-0.8,2.1-1.3,3.6-1.3,4.5c0,0.3,0.3,0.5,0.7,0.7c0.4,0.2,0.9,0.2,1.3,0.2c0.9,0,1.7-1.3,2.2-3.9c0.5-2.6,1-5.2,1.4-7.6
		c1.2,0.1,2.3,0.2,3.3,0.2c1,0,1.7-0.2,2.2-0.5c0.5-0.3,0.8-0.6,1-0.9c0.2-0.3,0.3-0.5,0.3-0.7c0-0.4-0.5-0.7-1.5-0.7
		c-1,0-2.7,0.1-5,0.2c0.2-1.2,0.4-2.9,0.7-5.1c1.7,0.3,3,0.4,3.8,0.4c0.8,0,1.5-0.2,2-0.6c0.5-0.4,0.8-0.7,1-1.1
		c0.2-0.4,0.3-0.6,0.3-0.8C371.9,344.3,371.4,344.1,370.4,344.1z M362.4,350.3c-0.2,0.8-0.3,1.3-0.3,1.7l-5.9,0.5
		c0.2-1.3,0.3-3.3,0.6-5.9l4.7-0.1c0.8,0,1.4,0,1.6,0.1C362.8,348,362.6,349.2,362.4,350.3z"/>
	<path class="st10" d="M491.2,341.4c-0.3,0-1,0.2-2,0.5c-1,0.3-2,0.5-3,0.5c-1,0-2.2-0.1-3.7-0.3c-0.6-0.1-1.2-0.2-1.6-0.2
		c0.1-1.3,0.1-2.1,0.1-2.3c0-1-0.2-1.5-0.6-1.5c-1.3,0-2.2,1.2-2.8,3.6h-0.3c-1.5,0-2.8,0.4-4,1.3c0-0.1,0-0.1,0-0.2
		c0-0.9-0.4-1.3-1.3-1.3c-0.3,0-1,0.2-2,0.5c-1,0.3-2,0.5-3,0.5c-1,0-2.2-0.1-3.7-0.3c-0.6-0.1-1.2-0.2-1.6-0.2
		c0.1-1.3,0.1-2.1,0.1-2.3c0-1-0.2-1.5-0.6-1.5c-1.3,0-2.2,1.2-2.8,3.6H458c-1.5,0-2.8,0.4-4,1.3c0-0.1,0-0.1,0-0.2
		c0-0.9-0.4-1.3-1.3-1.3c-0.3,0-1,0.2-2,0.5c-1,0.3-2,0.5-3,0.5c-1,0-2.2-0.1-3.7-0.3c-0.6-0.1-1.2-0.2-1.6-0.2
		c0.1-1.3,0.1-2.1,0.1-2.3c0-1-0.2-1.5-0.6-1.5c-1.3,0-2.2,1.2-2.8,3.6h-0.3c-1.5,0-2.8,0.4-4,1.3c0-0.1,0-0.1,0-0.2
		c0-0.9-0.4-1.3-1.3-1.3c-0.3,0-1,0.2-2,0.5c-1,0.3-2,0.5-3,0.5c-1,0-2.2-0.1-3.7-0.3c-0.6-0.1-1.2-0.2-1.6-0.2
		c0.1-1.3,0.1-2.1,0.1-2.3c0-1-0.2-1.5-0.6-1.5c-1.3,0-2.2,1.2-2.8,3.6h-0.3c-1.5,0-2.8,0.4-4,1.3c0-0.1,0-0.1,0-0.2
		c0-0.9-0.4-1.3-1.3-1.3c-0.3,0-1,0.2-2,0.5c-1,0.3-2,0.5-3,0.5c-1,0-2.2-0.1-3.7-0.3c-0.6-0.1-1.2-0.2-1.6-0.2
		c0.1-1.3,0.1-2.1,0.1-2.3c0-1-0.2-1.5-0.6-1.5c-1.3,0-2.2,1.2-2.8,3.6h-0.3c-1.5,0-2.8,0.4-4,1.3c0-0.1,0-0.1,0-0.2
		c0-0.9-0.4-1.3-1.3-1.3c-0.3,0-1,0.2-2,0.5c-1,0.3-2,0.5-3,0.5s-2.2-0.1-3.7-0.3c-0.6-0.1-1.2-0.2-1.6-0.2c0.1-1.3,0.1-2.1,0.1-2.3
		c0-1-0.2-1.5-0.6-1.5c-1.3,0-2.2,1.2-2.8,3.6h-0.3c-1.9,0-3.5,0.7-5,2c-1.5,1.4-2.2,2.9-2.2,4.6c0,0.6,0.1,1.1,0.4,1.6
		c0.2,0.5,0.6,0.7,1.1,0.7c0.5,0,0.9-0.2,1.3-0.5c0.4-0.3,0.6-0.8,0.6-1.3l-0.5-2.2c0-2,1.1-3,3.3-3c0.4,0,0.7,0,0.8,0
		c-0.2,1.4-0.4,3.4-0.5,5.9c-0.1,2.5-0.2,4.1-0.3,4.9c-0.5,0-1,0.1-1.5,0.2c-0.1,0-0.3,0.1-0.6,0.2c-0.3,0.1-0.5,0.3-0.6,0.4
		s-0.1,0.4-0.1,0.6c0,0.2,0.1,0.4,0.2,0.6c0.2,0.2,0.4,0.3,0.6,0.3l1.8-0.2c-0.3,3.7-0.7,5.9-1,6.7c-0.1,0.1-0.2,0.3-0.3,0.5
		c-0.1,0.2-0.3,0.4-0.4,0.6c-0.1,0.2-0.2,0.5-0.2,0.9c0,0.4,0.2,0.8,0.7,1.2c0.5,0.4,0.9,0.6,1.3,0.6c0.7,0,1.3-0.5,1.9-1.4
		c0.5-0.9,0.8-2,0.9-3.1c0.1-1.1,0.2-3.2,0.3-6.3l6,0.3c0.3,0,0.5-0.1,0.7-0.3c0.2-0.2,0.3-0.5,0.3-0.8c0-0.3-0.1-0.7-0.4-1
		c-0.3-0.3-0.7-0.5-1.1-0.5c-2.3,0-4.1,0-5.5,0.1c0.1-2.2,0.1-3.8,0.2-4.9c0.1-1.1,0.3-2.7,0.7-4.9c2.6,0.8,4.8,1.2,6.5,1.2
		c1.4,0,2.5-0.1,3.4-0.4c-0.7,1-1.1,2.1-1.1,3.2c0,0.6,0.1,1.1,0.4,1.6c0.2,0.5,0.6,0.7,1.1,0.7c0.5,0,0.9-0.2,1.3-0.5
		s0.6-0.8,0.6-1.3l-0.5-2.2c0-2,1.1-3,3.3-3c0.4,0,0.7,0,0.8,0c-0.2,1.4-0.4,3.4-0.5,5.9c-0.1,2.5-0.2,4.1-0.3,4.9
		c-0.5,0-1,0.1-1.5,0.2c-0.1,0-0.3,0.1-0.6,0.2c-0.3,0.1-0.5,0.3-0.6,0.4s-0.1,0.4-0.1,0.6c0,0.2,0.1,0.4,0.2,0.6
		c0.2,0.2,0.4,0.3,0.6,0.3l1.8-0.2c-0.3,3.7-0.7,5.9-1,6.7c-0.1,0.1-0.2,0.3-0.3,0.5c-0.1,0.2-0.3,0.4-0.4,0.6
		c-0.1,0.2-0.2,0.5-0.2,0.9c0,0.4,0.2,0.8,0.7,1.2c0.5,0.4,0.9,0.6,1.3,0.6c0.7,0,1.3-0.5,1.9-1.4c0.5-0.9,0.8-2,0.9-3.1
		c0.1-1.1,0.2-3.2,0.3-6.3l6,0.3c0.3,0,0.5-0.1,0.7-0.3c0.2-0.2,0.3-0.5,0.3-0.8c0-0.3-0.1-0.7-0.4-1c-0.3-0.3-0.7-0.5-1.1-0.5
		c-2.3,0-4.1,0-5.5,0.1c0.1-2.2,0.1-3.8,0.2-4.9c0.1-1.1,0.3-2.7,0.7-4.9c2.6,0.8,4.8,1.2,6.5,1.2c1.4,0,2.5-0.1,3.4-0.4
		c-0.7,1-1.1,2.1-1.1,3.2c0,0.6,0.1,1.1,0.4,1.6c0.2,0.5,0.6,0.7,1.1,0.7c0.5,0,0.9-0.2,1.3-0.5c0.4-0.3,0.6-0.8,0.6-1.3l-0.5-2.2
		c0-2,1.1-3,3.3-3c0.4,0,0.7,0,0.8,0c-0.2,1.4-0.4,3.4-0.5,5.9c-0.1,2.5-0.2,4.1-0.3,4.9c-0.5,0-1,0.1-1.5,0.2
		c-0.1,0-0.3,0.1-0.6,0.2c-0.3,0.1-0.5,0.3-0.6,0.4s-0.1,0.4-0.1,0.6c0,0.2,0.1,0.4,0.2,0.6c0.2,0.2,0.4,0.3,0.6,0.3l1.8-0.2
		c-0.3,3.7-0.7,5.9-1,6.7c-0.1,0.1-0.2,0.3-0.3,0.5c-0.1,0.2-0.3,0.4-0.4,0.6c-0.1,0.2-0.2,0.5-0.2,0.9c0,0.4,0.2,0.8,0.7,1.2
		c0.5,0.4,0.9,0.6,1.3,0.6c0.7,0,1.3-0.5,1.9-1.4c0.5-0.9,0.8-2,0.9-3.1c0.1-1.1,0.2-3.2,0.3-6.3l6,0.3c0.3,0,0.5-0.1,0.7-0.3
		c0.2-0.2,0.3-0.5,0.3-0.8c0-0.3-0.1-0.7-0.4-1c-0.3-0.3-0.7-0.5-1.1-0.5c-2.3,0-4.1,0-5.5,0.1c0.1-2.2,0.1-3.8,0.2-4.9
		c0.1-1.1,0.3-2.7,0.7-4.9c2.6,0.8,4.8,1.2,6.5,1.2c1.4,0,2.5-0.1,3.4-0.4c-0.7,1-1.1,2.1-1.1,3.2c0,0.6,0.1,1.1,0.4,1.6
		c0.2,0.5,0.6,0.7,1.1,0.7c0.5,0,0.9-0.2,1.3-0.5s0.6-0.8,0.6-1.3l-0.5-2.2c0-2,1.1-3,3.3-3c0.4,0,0.7,0,0.8,0
		c-0.2,1.4-0.4,3.4-0.5,5.9c-0.1,2.5-0.2,4.1-0.3,4.9c-0.5,0-1,0.1-1.5,0.2c-0.1,0-0.3,0.1-0.6,0.2c-0.3,0.1-0.5,0.3-0.6,0.4
		c-0.1,0.2-0.1,0.4-0.1,0.6c0,0.2,0.1,0.4,0.2,0.6c0.2,0.2,0.4,0.3,0.6,0.3l1.8-0.2c-0.3,3.7-0.7,5.9-1,6.7
		c-0.1,0.1-0.2,0.3-0.3,0.5c-0.1,0.2-0.3,0.4-0.4,0.6c-0.1,0.2-0.2,0.5-0.2,0.9c0,0.4,0.2,0.8,0.7,1.2c0.5,0.4,0.9,0.6,1.3,0.6
		c0.7,0,1.3-0.5,1.9-1.4c0.5-0.9,0.8-2,0.9-3.1c0.1-1.1,0.2-3.2,0.3-6.3l6,0.3c0.3,0,0.5-0.1,0.7-0.3c0.2-0.2,0.3-0.5,0.3-0.8
		c0-0.3-0.1-0.7-0.4-1c-0.3-0.3-0.7-0.5-1.1-0.5c-2.3,0-4.1,0-5.5,0.1c0.1-2.2,0.1-3.8,0.2-4.9c0.1-1.1,0.3-2.7,0.7-4.9
		c2.6,0.8,4.8,1.2,6.5,1.2c1.4,0,2.5-0.1,3.4-0.4c-0.7,1-1.1,2.1-1.1,3.2c0,0.6,0.1,1.1,0.4,1.6c0.2,0.5,0.6,0.7,1.1,0.7
		c0.5,0,0.9-0.2,1.3-0.5s0.6-0.8,0.6-1.3l-0.5-2.2c0-2,1.1-3,3.3-3c0.4,0,0.7,0,0.8,0c-0.2,1.4-0.4,3.4-0.5,5.9
		c-0.1,2.5-0.2,4.1-0.3,4.9c-0.5,0-1,0.1-1.5,0.2c-0.1,0-0.3,0.1-0.6,0.2c-0.3,0.1-0.5,0.3-0.6,0.4c-0.1,0.2-0.1,0.4-0.1,0.6
		c0,0.2,0.1,0.4,0.2,0.6c0.2,0.2,0.4,0.3,0.6,0.3l1.8-0.2c-0.3,3.7-0.7,5.9-1,6.7c-0.1,0.1-0.2,0.3-0.3,0.5
		c-0.1,0.2-0.3,0.4-0.4,0.6c-0.1,0.2-0.2,0.5-0.2,0.9c0,0.4,0.2,0.8,0.7,1.2c0.5,0.4,0.9,0.6,1.3,0.6c0.7,0,1.3-0.5,1.9-1.4
		c0.5-0.9,0.8-2,0.9-3.1s0.2-3.2,0.3-6.3l6,0.3c0.3,0,0.5-0.1,0.7-0.3c0.2-0.2,0.3-0.5,0.3-0.8c0-0.3-0.1-0.7-0.4-1
		s-0.7-0.5-1.1-0.5c-2.3,0-4.1,0-5.5,0.1c0.1-2.2,0.1-3.8,0.2-4.9c0.1-1.1,0.3-2.7,0.7-4.9c2.6,0.8,4.8,1.2,6.5,1.2
		c1.4,0,2.5-0.1,3.4-0.4c-0.7,1-1.1,2.1-1.1,3.2c0,0.6,0.1,1.1,0.4,1.6c0.2,0.5,0.6,0.7,1.1,0.7c0.5,0,0.9-0.2,1.3-0.5
		c0.4-0.3,0.6-0.8,0.6-1.3l-0.5-2.2c0-2,1.1-3,3.3-3c0.4,0,0.7,0,0.8,0c-0.2,1.4-0.4,3.4-0.5,5.9c-0.1,2.5-0.2,4.1-0.3,4.9
		c-0.5,0-1,0.1-1.5,0.2c-0.1,0-0.3,0.1-0.6,0.2c-0.3,0.1-0.5,0.3-0.6,0.4c-0.1,0.2-0.1,0.4-0.1,0.6c0,0.2,0.1,0.4,0.2,0.6
		c0.2,0.2,0.4,0.3,0.6,0.3l1.8-0.2c-0.3,3.7-0.7,5.9-1,6.7c-0.1,0.1-0.2,0.3-0.3,0.5c-0.1,0.2-0.3,0.4-0.4,0.6
		c-0.1,0.2-0.2,0.5-0.2,0.9c0,0.4,0.2,0.8,0.7,1.2c0.5,0.4,0.9,0.6,1.3,0.6c0.7,0,1.3-0.5,1.9-1.4c0.5-0.9,0.8-2,0.9-3.1
		s0.2-3.2,0.3-6.3l6,0.3c0.3,0,0.5-0.1,0.7-0.3c0.2-0.2,0.3-0.5,0.3-0.8c0-0.3-0.1-0.7-0.4-1s-0.7-0.5-1.1-0.5c-2.3,0-4.1,0-5.5,0.1
		c0.1-2.2,0.1-3.8,0.2-4.9c0.1-1.1,0.3-2.7,0.7-4.9c2.6,0.8,4.8,1.2,6.5,1.2c1.8,0,3.2-0.2,4.1-0.7c0.9-0.5,1.4-1.1,1.4-2
		C492.5,341.8,492.1,341.4,491.2,341.4z"/>
</g>
<g>
	<path class="st3" d="M560.6,344.5c-1,0-2.8,0.1-5.4,0.2c0.2-2.3,0.4-4.2,0.6-5.6c0.2-0.5,0.3-0.9,0.3-1.3c0-0.4-0.2-0.6-0.6-0.6
		c-0.4,0-0.8,0.5-1.1,1.6c-0.3,1.1-0.7,3.1-1.1,6c-2.2,0.1-4.5,0.3-6.8,0.5c0.2-1.9,0.3-3.2,0.4-3.7c0.1-0.5,0.2-0.9,0.3-1.2
		c0.1-0.3,0.3-0.6,0.4-1c0.1-0.4,0.2-0.8,0.2-1.2c0-0.4-0.1-0.6-0.3-0.8c-0.2-0.2-0.4-0.2-0.7-0.2c-0.4,0-0.8,0.5-1,1.5
		c-0.3,1-0.7,3.2-1.2,6.7l-2.7,0.3c-0.6,0.1-1.3,0.2-2.1,0.4c-0.7,0.2-1.1,0.4-1.1,0.7c0,0.5,0.5,0.8,1.5,0.8l4.3-0.5
		c-0.4,2.4-0.7,4.5-1.1,6.2l-2.7,0.2c-0.7,0.1-1.4,0.2-2.1,0.4c-0.7,0.2-1.1,0.4-1.1,0.6c0,0.6,0.5,0.9,1.5,0.9
		c0.5,0,1.3-0.1,2.2-0.3c0.9-0.2,1.5-0.3,1.8-0.3l-0.6,2.3c-0.2,0.6-0.7,2-1.7,4.2c-1,2.1-1.5,3.6-1.5,4.5c0,0.3,0.3,0.6,0.8,0.7
		c0.5,0.2,1,0.2,1.5,0.2c1.1,0,1.9-1.3,2.6-3.9c0.6-2.9,1.1-5.6,1.5-8.1l4.3-0.1c0.6,0,1.2,0,1.6,0l-0.6,2.4
		c-0.1,0.5-0.6,1.9-1.5,4.1c-0.9,2.2-1.3,3.7-1.3,4.6c0,0.3,0.3,0.6,0.7,0.7c0.4,0.2,0.9,0.2,1.3,0.2c1,0,1.7-1.3,2.3-4
		c0.5-2.7,1-5.3,1.4-7.8c1.3,0.1,2.4,0.2,3.4,0.2s1.8-0.2,2.3-0.5c0.5-0.3,0.9-0.6,1.1-1c0.2-0.3,0.3-0.6,0.3-0.7
		c0-0.5-0.5-0.7-1.5-0.7s-2.7,0.1-5.2,0.2c0.2-1.2,0.4-3,0.7-5.3c1.7,0.3,3,0.4,3.9,0.4c0.9,0,1.5-0.2,2-0.6c0.5-0.4,0.8-0.8,1-1.1
		c0.2-0.4,0.3-0.6,0.3-0.8C562.2,344.7,561.6,344.5,560.6,344.5z M552.3,350.9c-0.2,0.8-0.3,1.4-0.3,1.8l-6.1,0.5
		c0.2-1.3,0.4-3.4,0.6-6.1l4.8-0.1c0.8,0,1.4,0,1.7,0.1C552.8,348.5,552.5,349.7,552.3,350.9z"/>
	<path class="st3" d="M577.3,339.7c-1.2,0-2.2,0.2-3.1,0.6c-0.9,0.4-1.3,0.9-1.3,1.4c0,0.3,0.1,0.5,0.4,0.5l2.5-0.2
		c1.6,0,2.9,1.1,3.7,3.4c0.8,2.2,1.3,4.7,1.3,7.4c0,2.7-0.4,5.2-1.3,7.6c-0.5,1.2-1.1,2.2-2.1,2.9c-0.9,0.7-2.1,1.1-3.5,1.1
		s-2.6-0.9-3.6-2.6s-1.5-4-1.5-6.8s0.1-5.1,0.4-6.9c0.3-1.8,1.1-3.7,2.5-5.6c0.3-0.4,0.4-0.7,0.4-0.9c0-0.2-0.1-0.3-0.3-0.3
		c-0.8,0-1.7,0.7-2.8,2.2c-2.6,3.4-3.9,7.9-3.9,13.3c0,2.9,0.6,5.3,1.9,7.2c1.3,1.9,3.3,2.8,6,2.8c2,0,3.7-0.5,5.3-1.5
		c1.5-1,2.8-2.3,3.6-3.9c1.8-3.2,2.7-6.6,2.7-10.2c0-3.7-0.7-6.5-2.1-8.4S579.3,339.7,577.3,339.7z"/>
	<path class="st3" d="M602.8,341.8c-0.6-0.7-1.3-1.4-2.3-1.8s-2.1-0.7-3.3-0.7c-2.3,0-4.3,0.9-5.9,2.8c-1.7,1.9-2.5,4.1-2.5,6.6
		c0,1.9,0.5,3.6,1.6,5.1c1,1.5,2.5,2.3,4.3,2.3s3.3-0.3,4.4-0.9c1.1-0.6,1.6-1.2,1.6-1.8c0-0.3-0.1-0.4-0.3-0.4
		c-0.2,0-0.8,0.2-1.8,0.7c-1,0.5-2,0.7-3.1,0.7s-1.8-0.4-2.4-1.1c-0.9-1.2-1.3-2.9-1.3-5.2c0-1.8,0.5-3.4,1.5-4.9
		c1-1.5,2.2-2.2,3.5-2.2c3.1,0,4.6,3.4,4.6,10.3c0,3-0.4,5.9-1.2,8.6c-0.4,1.6-1.1,2.9-2.1,3.8c-1,1-2.1,1.5-3.5,1.5
		c-0.6,0-1.2-0.2-1.7-0.6c-0.5-0.4-0.8-0.8-1-1.3c-0.2-0.5-0.6-0.9-1-1.3s-1-0.6-1.6-0.6c-0.6,0-1,0.5-0.9,1.5c0,1,0.6,1.9,1.7,2.8
		c1.1,0.8,2.4,1.2,3.8,1.2c7.5,0,11.3-5.5,11.3-16.4c0-2.3-0.3-4.3-0.9-6C603.8,343.4,603.3,342.5,602.8,341.8z"/>
	<path class="st3" d="M619.6,343.5c1.6-0.5,2.8-1.1,3.5-1.8c0.7-0.7,1-1.4,1-2.2c0-1.4-0.3-2.1-0.9-2.1c-0.2,0-0.7,0.2-1.3,0.6
		c-0.6,0.4-1.3,0.9-2.1,1.4c-0.7,0.5-1.7,0.9-3,1.4c-1.2,0.4-2.5,0.6-3.8,0.6c-0.1-0.5-0.4-0.9-0.7-1.2c-0.4-0.3-0.7-0.5-1.2-0.5
		s-0.8,0.2-1.3,0.7c-0.4,0.5-0.7,1-0.7,1.5c0,0.5,0.2,1,0.7,1.4c0.4,0.4,1,0.6,1.6,0.8c0,1.6-0.2,3.5-0.7,5.8
		c-0.4,0.2-0.6,0.5-0.6,0.9c0,0.4,0.2,0.6,0.7,0.6s1-0.1,1.6-0.3c0.6-0.2,1.2-0.3,1.9-0.3c1.7,0,3.1,0.6,4.3,1.9
		c1.2,1.3,1.8,3,1.8,5.1c0,2.1-0.6,3.8-1.8,5.2c-1.2,1.3-2.5,2-4,2c-0.9,0-1.6-0.2-2.2-0.6s-1-0.9-1.3-1.4c-0.3-0.5-0.6-1-1-1.4
		c-0.4-0.4-0.9-0.6-1.3-0.6s-0.8,0.2-1.1,0.6c-0.3,0.4-0.4,0.8-0.4,1.3c0,0.9,0.7,1.8,2.1,2.7c1.4,0.8,3,1.3,4.9,1.3
		c1.9,0,3.9-0.7,6.2-2.2c1.1-0.8,2-1.9,2.7-3.3c0.7-1.5,1.1-3.1,1.1-5c0-1.9-0.6-3.5-1.9-5.1c-1.3-1.5-2.9-2.3-4.8-2.3
		c-1.9,0-3.4,0.2-4.6,0.5c0.4-2.4,0.6-4.1,0.6-5.2C615.9,344.3,618,344,619.6,343.5z"/>
	<path class="st3" d="M645.2,358.5c-0.2,0-0.6,0.5-1.2,1.4c-1.1,1.7-2.2,2.6-3.4,2.6c-0.4,0-1.6-0.3-3.6-0.9c-2.1-0.6-3.7-1-4.8-1.2
		c1.3-1.4,2.8-2.8,4.5-4.4c1.7-1.5,3-2.7,3.9-3.4c0.9-0.8,1.6-1.8,2.3-3.1c0.7-1.3,1-2.8,1-4.5c0-1.8-0.7-3.2-2.1-4.2
		c-1.4-1.1-3.1-1.6-5-1.6s-3.7,0.6-5.4,1.9c-1.6,1.3-2.5,3-2.5,5c0,0.7,0.2,1.5,0.5,2.2c0.3,0.7,0.7,1.1,1.1,1.1s0.8-0.2,1.1-0.6
		s0.4-0.8,0.4-1.2c0-0.4-0.2-1-0.5-1.7c-0.3-0.7-0.5-1.3-0.5-1.8c0-1.1,0.5-1.9,1.4-2.3s2-0.7,3.2-0.7c1.2,0,2.2,0.5,3,1.4
		s1.1,2,1.1,3.2c0,1.2-0.1,2.2-0.3,3.1c-0.2,0.8-0.6,1.6-1.3,2.5c-0.6,0.8-1.2,1.6-1.8,2.2c-0.6,0.6-1.6,1.6-3,2.9
		c-1.4,1.3-2.6,2.6-3.7,3.7c-1,0.1-1.8,0.7-2.6,1.6c-0.7,0.9-1.1,1.8-1.1,2.5c0,0.7,0.2,1.2,0.5,1.5c0.3,0.3,0.8,0.5,1.3,0.5
		c0.7,0,1.6-1,2.5-3c1.2,0,2.7,0.5,4.6,1.6c1.9,1.1,3.1,1.6,3.5,1.6c1.5,0,2.6-0.3,3.3-0.8c0.7-0.6,1.6-1.6,2.5-3.1
		c0.9-1.5,1.4-2.7,1.4-3.6C645.7,358.7,645.5,358.5,645.2,358.5z"/>
	<path class="st3" d="M665.3,358.5c-0.2,0-0.6,0.5-1.2,1.4c-1.1,1.7-2.2,2.6-3.4,2.6c-0.4,0-1.6-0.3-3.6-0.9c-2.1-0.6-3.7-1-4.8-1.2
		c1.3-1.4,2.8-2.8,4.5-4.4c1.7-1.5,3-2.7,3.9-3.4c0.9-0.8,1.6-1.8,2.3-3.1c0.7-1.3,1-2.8,1-4.5c0-1.8-0.7-3.2-2.1-4.2
		c-1.4-1.1-3.1-1.6-5-1.6s-3.7,0.6-5.4,1.9c-1.6,1.3-2.5,3-2.5,5c0,0.7,0.2,1.5,0.5,2.2c0.3,0.7,0.7,1.1,1.1,1.1s0.8-0.2,1.1-0.6
		s0.4-0.8,0.4-1.2c0-0.4-0.2-1-0.5-1.7c-0.3-0.7-0.5-1.3-0.5-1.8c0-1.1,0.5-1.9,1.4-2.3s2-0.7,3.2-0.7c1.2,0,2.2,0.5,3,1.4
		s1.1,2,1.1,3.2c0,1.2-0.1,2.2-0.3,3.1c-0.2,0.8-0.6,1.6-1.3,2.5c-0.6,0.8-1.2,1.6-1.8,2.2c-0.6,0.6-1.6,1.6-3,2.9
		c-1.4,1.3-2.6,2.6-3.7,3.7c-1,0.1-1.8,0.7-2.6,1.6c-0.7,0.9-1.1,1.8-1.1,2.5c0,0.7,0.2,1.2,0.5,1.5c0.3,0.3,0.8,0.5,1.3,0.5
		c0.7,0,1.6-1,2.5-3c1.2,0,2.7,0.5,4.6,1.6c1.9,1.1,3.1,1.6,3.5,1.6c1.5,0,2.6-0.3,3.3-0.8c0.7-0.6,1.6-1.6,2.5-3.1
		c0.9-1.5,1.4-2.7,1.4-3.6C665.8,358.7,665.6,358.5,665.3,358.5z"/>
	<path class="st3" d="M677.8,351.1c0.2-0.2,1-0.7,2.3-1.7c1.4-1,2.3-1.7,2.6-2.3l0.9-1.3c0.4-0.6,0.6-1.5,0.6-2.7
		c0-1.2-0.5-2.1-1.5-2.8c-1-0.7-2.1-1.1-3.2-1.1s-2,0.2-2.8,0.6c-0.7,0.4-1.1,0.8-1.1,1.2s0.1,0.7,0.4,0.7c0.2,0,0.5-0.1,1-0.3
		c0.5-0.2,1.1-0.3,1.7-0.3s1.2,0.3,1.8,0.9c0.6,0.6,0.8,1.4,0.8,2.5c0,1.8-1.6,3.7-4.9,5.8c-2.7-1.6-4.1-3.4-4.1-5.4
		c0-1.3,0.5-2.5,1.5-3.7c0.6-0.7,0.9-1.3,0.9-1.5c0-0.3-0.1-0.4-0.4-0.4s-0.8,0.3-1.6,0.9c-2.2,1.6-3.3,3.3-3.3,5.4
		c0,0.9,0.3,1.8,0.8,2.6c0.5,0.8,1.1,1.5,1.7,1.9c0.6,0.4,1.4,1,2.4,1.7c-5,3-7.6,6.2-7.6,9.7c0,1.9,0.7,3.3,2.2,4.2
		c1.5,0.9,3.2,1.4,5.1,1.4c3.1,0,5.6-0.6,7.5-1.8c1.8-1.2,2.8-3.1,2.8-5.6C684.3,356.4,682.1,353.6,677.8,351.1z M679,363.8
		c-1,1.1-2.2,1.6-3.7,1.6c-1.5,0-2.8-0.4-3.7-1.3c-0.9-0.8-1.4-1.9-1.4-3.1c0-2.6,1.9-5.4,5.6-8.6c3.1,2.3,4.6,4.7,4.6,7.3
		C680.4,361.4,680,362.7,679,363.8z"/>
</g>
</svg>
