<?xml version="1.0" encoding="utf-8"?>
<!-- Generator: Adobe Illustrator 25.4.1, SVG Export Plug-In . SVG Version: 6.00 Build 0)  -->
<svg version="1.1" id="Calque_1" xmlns="http://www.w3.org/2000/svg" xmlns:xlink="http://www.w3.org/1999/xlink" x="0px" y="0px"
	 viewBox="0 0 841.9 595.3" style="enable-background:new 0 0 841.9 595.3;" xml:space="preserve">
<style type="text/css">
	.st0{fill:#FFFFFF;}
	.st1{fill:#095228;}
	.st2{fill:#095228;stroke:#095228;stroke-miterlimit:10;}
	.st3{fill:#095228;stroke:#010202;stroke-miterlimit:10;}
	.st4{fill:#CBB89A;}
	.st5{fill:#ADD5AC;}
	.st6{fill:none;stroke:#000000;stroke-miterlimit:10;}
	.st7{fill:#FFFFFF;stroke:#000000;stroke-miterlimit:10;}
	.st8{fill:#CBB89A;stroke:#000000;stroke-miterlimit:10;}
	.st9{fill:#CBB89A;stroke:#010202;stroke-width:0.5;stroke-miterlimit:10;}
	.st10{fill:#FFFFFF;stroke:#010202;stroke-width:0.5;stroke-miterlimit:10;}
</style>
<rect x="123.3" y="-123.3" transform="matrix(6.123234e-17 -1 1 6.123234e-17 123.3071 718.5827)" class="st0" width="595.3" height="841.8"/>
<g>
	<path class="st1" d="M809.7,28.6v538H32.2v-538H809.7 M811.7,26.6H30.2v542h781.4V26.6L811.7,26.6z"/>
</g>
<g>
	<path class="st2" d="M81.2,71.9c-0.2,0-0.6,0.6-1.1,1.7c-0.5,1.1-1.4,1.7-2.8,1.7c-1.4,0-2.7-0.2-3.9-0.5c-1.2-0.3-3.6-1.1-7.2-2.3
		c1.5-2.9,2.7-7.6,3.4-14.3c3.2-0.7,6-1.8,8.3-3.4c1.2-0.9,2.2-1.9,2.9-3.2c0.7-1.3,1.1-2.6,1.1-4.2c0-2.2-1.6-3.4-4.9-3.4
		c-3.3,0-5.9,1.1-7.9,3.4c-2,2.3-3.3,5.5-3.8,9.7c-2,0.2-3,0.7-3,1.4c0,0.2,0.4,0.3,1.1,0.3c0.7,0,1.3,0,1.7-0.1
		c-0.8,6.1-1.6,10.4-2.3,12.7c-1.9-0.5-3.5-0.8-4.5-0.8c-2.5,0-3.8,1.1-3.8,3.3c0,1,0.4,1.9,1.2,2.6c0.8,0.7,1.7,1.1,2.7,1.1
		c2.5,0,4.5-0.8,5.9-2.3c0.4,0.2,1.2,0.5,2.2,1c1.1,0.5,1.8,0.8,2.1,1c0.3,0.2,1.2,0.5,2.5,1c1.3,0.5,2.8,0.8,4.4,0.8
		c1.6,0,3.1-0.6,4.4-1.9c1.4-1.3,2-2.8,2-4.7C81.9,72.2,81.6,71.9,81.2,71.9z M76.1,45.5c1.4,0,2.2,1,2.2,3.1c0,2.1-0.8,3.8-2.4,5.1
		c-1.6,1.3-3.7,2.2-6.1,2.8C70.8,49.1,73,45.5,76.1,45.5z M59,75.5c-0.8,0-1.4-0.2-1.9-0.6c-0.5-0.4-0.7-0.9-0.7-1.4
		c0-0.5,0.3-0.8,0.8-0.8c0.5,0,1.9,0.5,4.2,1.5C60.6,75.1,59.8,75.5,59,75.5z"/>
	<path class="st2" d="M148.4,62.4c-0.1,0-0.3,0.1-0.5,0.2l-0.7,0.4c-0.3,0.2-0.8,0.5-1.4,0.8c-0.6,0.4-1.7,0.8-3.2,1.3
		c0-2.6-0.7-4.6-2-6.2c-1.3-1.6-2.7-2.4-4.2-2.4c-1.5,0-2.8,0.4-3.9,1.2c-2.4,0-4.4,1.1-5.9,3.4c-0.6,0.9-1,1.7-1.4,2.6
		c-0.9,1.1-2.7,3.4-5.5,6.9c0-2.2,0.3-4.6,0.6-7.2c0.7-1.3,1-2.8,1-4.4c0-1.7-0.3-2.5-0.8-2.5c-0.6,0-1.3,0.4-2.4,1.3
		c-1,0.8-1.6,1.4-1.7,1.8c-0.6-0.7-1.3-1.3-2.2-1.8c-0.8-0.5-1.5-0.7-2.1-0.7c-2.9,0-5.2,1.2-7,3.6c-0.6,0.8-1.1,1.7-1.5,2.5
		c-0.3,0.2-0.6,0.3-0.9,0.6c-0.6,0.4-1.7,0.8-3.2,1.3c0-2.6-0.7-4.6-2-6.2c-1.3-1.6-2.7-2.4-4.2-2.4c-1.5,0-2.8,0.4-3.9,1.2
		c-2.4,0-4.4,1.1-5.9,3.4c-1.5,2.3-2.3,4.7-2.3,7.3c0,2.6,0.6,4.8,1.9,6.7c1.3,1.9,3.1,2.9,5.5,2.9c3.3,0,5.8-1,7.6-3
		c1.8-2,2.8-4.7,3.1-7.9c1.3-0.5,2.5-1.1,3.5-1.7c-0.3,1.1-0.4,2.3-0.4,3.6c0,3.1,0.6,5.4,1.7,6.9c1.1,1.4,2.5,2.2,4.2,2.2
		c1.7,0,3-0.7,4-2.2c1-1.5,2.1-3.8,3.3-7l-0.3,6.7c-4,4.3-6.7,7.4-8.2,9.5c-1.5,2.1-2.2,4.1-2.2,6c0,2,0.6,3.3,1.7,4.1
		c1.1,0.8,2.4,1.2,3.7,1.2c3,0,5.1-1,6.3-3c1.2-2,1.9-5.5,2.1-10.4c0.1-1.7,0.2-4.8,0.5-9.4c2-2.5,3.6-4.6,4.9-6.2
		c0,0.4-0.1,0.7-0.1,1.1c0,2.6,0.6,4.8,1.9,6.7c1.3,1.9,3.1,2.9,5.5,2.9c3.3,0,5.8-1,7.6-3c1.8-2,2.8-4.7,3.1-7.9
		c1.8-0.7,3.3-1.5,4.5-2.4c1.2-0.9,1.8-1.5,1.8-1.8C148.8,62.6,148.7,62.4,148.4,62.4z M94.4,73.3c-0.9,1.4-2.2,2.1-3.9,2.1
		c-1.7,0-2.9-0.8-3.7-2.5c-0.8-1.7-1.2-3.5-1.2-5.3c0-3.9,0.8-6.5,2.5-7.8c-0.4,0.9-0.6,2-0.6,3.3c0,1.3,0.6,2.5,1.9,3.5
		c1.2,1.1,2.8,1.6,4.5,1.6l2.1-0.1C95.8,70.2,95.3,71.9,94.4,73.3z M95.4,66c-1.3,0-2.5-0.4-3.5-1.3c-1-0.9-1.5-2.1-1.5-3.5
		c0-0.7,0.2-1.3,0.5-1.8c0.3-0.6,0.8-0.8,1.5-0.8c1.2,0,2.1,0.8,2.7,2.3c0.6,1.6,0.9,3.3,1,5.2H95.4z M115.3,84
		c-0.2,4.1-0.6,6.9-1.1,8.3c-0.5,1.4-1.4,2-2.6,2c-0.8,0-1.5-0.4-1.9-1.3c-0.5-0.9-0.7-1.9-0.7-3.3c0-2.9,2.2-6.7,6.6-11.5L115.3,84
		z M116.3,64.4c-1.4,3.9-2.5,6.6-3.4,8.2c-0.9,1.6-1.8,2.4-2.8,2.4s-1.8-0.7-2.4-2.1c-0.6-1.4-1-3.2-1-5.4c0-2.2,0.6-4.1,1.8-5.8
		c1.2-1.7,2.4-2.5,3.5-2.5c0.7,0,1.5,0.3,2.5,0.9c1,0.6,1.6,1.2,1.9,1.8C116.4,62.2,116.4,63.1,116.3,64.4z M137.2,73.3
		c-0.9,1.4-2.2,2.1-3.9,2.1c-1.7,0-2.9-0.8-3.7-2.5c-0.8-1.7-1.2-3.5-1.2-5.3c0-3.9,0.8-6.5,2.5-7.8c-0.4,0.9-0.6,2-0.6,3.3
		c0,1.3,0.6,2.5,1.9,3.5c1.2,1.1,2.8,1.6,4.5,1.6l2.1-0.1C138.7,70.2,138.1,71.9,137.2,73.3z M138.2,66c-1.3,0-2.5-0.4-3.5-1.3
		c-1-0.9-1.5-2.1-1.5-3.5c0-0.7,0.2-1.3,0.5-1.8c0.3-0.6,0.8-0.8,1.5-0.8c1.2,0,2.1,0.8,2.7,2.3c0.6,1.6,0.9,3.3,1,5.2H138.2z"/>
</g>
<path class="st3" d="M695.2,430.4H146.7c-12.2,0-22.2-9.9-22.2-22.2V186.5c0-12.2,9.9-22.2,22.2-22.2h548.4
	c12.2,0,22.2,9.9,22.2,22.2v221.7C717.3,420.5,707.4,430.4,695.2,430.4z"/>
<g id="Calque_2_00000163073423136809558960000010291870871134779278_">
	<g id="Calque_3_00000074423476492567408680000016723133694381571765_">
		<path class="st5" d="M487.5,325.7c1,0.7,2.2,1.1,3.4,1.2c4.4,0,6.6-2.2,6.6-6.6c0-1.1-0.5-2.2-1.4-2.8c-1-0.8-2.2-1.2-3.5-1.2
			c-1.6,0.1-3.2,0.6-4.5,1.5c-1.5,0.8-2.4,2.4-2.4,4.1C485.6,323.4,486.2,324.9,487.5,325.7z"/>
		<path class="st5" d="M504.8,325.7c1,0.7,2.3,1.1,3.6,1.2c4.3,0,6.5-2.2,6.5-6.6c0-1.1-0.5-2.2-1.4-2.8c-1-0.8-2.2-1.2-3.4-1.2
			c-1.6,0.1-3.2,0.6-4.5,1.5c-1.5,0.8-2.5,2.4-2.5,4.1C502.9,323.4,503.6,324.9,504.8,325.7z"/>
		<path class="st5" d="M687.5,350.7c-1.7,0.8-3.4,1.6-5,2.6c-3.7,1.9-7.6,3.4-11.7,4.3c-1.1-3.9-2.8-7.7-5-11.1
			c7.2-12.1,10.7-22.9,10.7-32.6c0-6.1-1.4-9.2-4.1-9.2c-2.4,0-4.8,1.7-7.2,5.1c-2.7,4-4.5,8.5-5.4,13.2c-1.2,5.4-2.3,11.9-3.5,19.4
			c-2.1,0.5-3.9,1.7-5.2,3.4c-1.4,1.8-2.1,4.3-2.1,7.5c0,2.8,1.3,5.5,3.5,7.3c-2,3.9-4.3,7.7-7,11.2c-1.6,2.1-3.5,3.8-5.8,5.2
			c-2.1,1.2-4.5,1.8-7,1.8c-2.6,0-4.8-1.2-6.8-3.7c-2-2.5-3.1-5.5-3.4-8.7c6.3-0.1,11.6-2,16-5.5c4.4-3.5,6.5-7.8,6.5-13
			c0.1-2.5-0.9-4.9-2.8-6.5c-2-1.6-4.6-2.5-7.2-2.4c-6-0.1-11.7,2.5-15.4,7.2c-3.4,4.2-5.4,10.1-5.8,17.7c-1.6,3.3-3.5,6.5-5.6,9.5
			c-2.6,3.6-4.6,5.4-6.1,5.5c-0.5,0-0.8-1-0.8-2.9c0-1.9,0.4-6.6,1.2-14c0.7-5.5,1.1-11.1,1.2-16.7c0-1.8-0.8-3.4-2.1-4.5
			c-1.3-1.2-3.1-1.8-4.8-1.8c-1.8,0-3.9,1.3-6.2,3.8c-3.1,3.7-5.9,7.6-8.3,11.8c-3.3,5.3-5.1,8.3-5.4,8.8c0-4.6,0-7.9,0.1-10.1
			c2.6-3.4,5.1-8.4,7.6-14.9c2.5-6.6,3.8-13.7,3.8-20.8c0.1-2.5-0.4-5.1-1.3-7.4c-0.9-1.9-1.7-2.8-2.6-2.8c-2,0.1-4,0.8-5.6,2.1
			c-7.8,6-11.8,20.1-11.8,42.1v7.5c0,0.5,0,1.1,0,1.8c-0.5,0.9-1.1,1.9-1.7,2.7c-7.2,10.4-14.6,15.5-22.4,15.5
			c-6.6,0-11.6-2.5-15.3-7.4c-3.6-4.9-5.5-10.9-5.4-17c0-9.2,2.6-18.2,7.9-26.9c5.3-8.7,11.2-13.1,17.6-13.1c6.5,0,9.8,3.1,9.8,9.2
			c-0.1,2.2-1,4.3-2.5,5.9c-1.7,2-2.5,3.7-2.5,5.3c0,1.4,1.3,2.1,3.8,2.1s4.7-1.5,6.5-4.6c1.8-3.1,2.7-6.5,2.7-10.1
			c0.1-3.4-1.3-6.7-3.9-9c-2.7-2.4-6.3-3.7-10-3.5c-10.7,0-19.9,4.6-27.7,13.8c-7.8,9.2-11.7,21.3-11.7,36.3c0,0.8,0,1.6,0.1,2.4
			c-1.8,3.9-4,7.6-6.4,11.1c-2.6,3.6-4.6,5.4-6.1,5.5c-0.5,0-0.8-1.2-0.8-3.5c0-12.5,0.6-19.9,1.7-22.4c0.8-1.8,1.3-3.6,1.6-5.6
			c0.4-1.6,0.6-3.3,0.7-4.9c0-3.3-0.6-4.9-1.9-4.9c-1.2,0-3,0.9-5.3,2.8c-1.5,1.1-2.8,2.4-4,3.9c-0.4,0.7-0.9,5.4-1.5,14
			c-0.1,1.8-0.2,3.3-0.3,4.9c-1.7,3.5-3.7,6.9-6,10.1c-2.6,3.6-4.6,5.4-6.1,5.5c-0.5,0-0.8-1.2-0.8-3.5c0-12.1,0.4-19.1,1.2-21.1
			c0.8-1.7,1.3-3.5,1.6-5.4c0.4-1.7,0.6-3.3,0.7-5c0-3.3-0.6-4.9-1.9-4.9c-1.2,0-2.8,0.7-4.5,2c-1.4,1-2.6,2.1-3.7,3.4
			c-3.4-3.6-6.5-5.4-9.3-5.4c-6.4,0-11.5,2.7-15.4,8c-1,1.4-1.9,2.8-2.6,4.3c-0.1,0-0.2-0.1-0.3-0.1c-0.6,0-2.1,2.8-4.7,8.5
			c-2.1,4.9-4.7,9.5-7.8,13.8c-2.6,3.6-4.7,5.4-6.3,5.4c-1.5,0-2.3-7-2.3-21.1c0-14.1,0.5-24.7,1.6-32.1c5.1-6,7.6-11.9,7.6-17.7
			c0-2-0.7-4-2-5.6c-1.3-1.8-2.6-2.7-3.8-2.7c-3.5,0-6.6,8.1-9.3,24.4c-6.2,6.8-11.8,14.1-16.6,22c-2.9-8.4-6.9-16.5-12-23.8
			c0-2.3-0.3-4.7-0.9-6.9c-0.6-2.2-1.3-3.3-2.2-3.3c-2.8,0-4.9,0.9-6.2,2.7c-1.3,1.8-1.9,4-1.9,6.3c0,2.3,1.9,5.9,5.6,10.8
			c-1.4,8.9-3.6,17.7-6.5,26.2c-3,8.5-6.2,14.6-9.5,18.1c-1,0.7-2.2,1.2-3.4,1.4c-1.6,0.3-3.2,0.9-4.6,1.8c-1.3,0.8-1.9,2.1-1.9,4
			c0,2.3,1.5,3.5,4.5,3.5c4.1,0,7.7-2,10.7-6c3-4,5.9-10.1,8.8-18.3c2.8-7.8,4.9-15.9,6.4-24.1c3.2,5.6,5.7,11.5,7.5,17.7
			c-3.7,7.7-5.6,13.8-5.6,18.5c0,6.8,1.8,10.2,5.3,10.2c2.9,0,5.4-1.4,7.3-4.1c1.9-2.8,2.9-6.7,2.9-11.7c-0.1-6.1-1.1-12.1-2.7-17.9
			c4-6.1,8.6-11.7,13.7-16.8c-1,9.7-1.6,22.2-1.6,37.7c0,6.5,0.4,10.3,1.3,11.4c0.8,0.7,1.8,1.1,2.8,1.4c1.7,0.5,3.4,0.7,5.2,0.7
			c5,0,10.6-6.7,16.9-20c0.3-0.5,0.5-1,0.7-1.6c0,0.5-0.1,1-0.1,1.5c0,6.9,1.3,12,3.9,15.3c2.6,3.2,5.6,4.8,9,4.8
			c3.3,0.1,6.5-1.4,8.5-4.1c2.2-2.7,4.4-6.9,6.7-12.5c-0.2,4.1-0.3,7.4-0.3,9.9c0,2.5,0.3,4,0.9,4.6c1.8,1.4,4.3,2.1,7.6,2.1
			c3.7,0,8.2-4.7,13.3-14.1c-0.1,2.2-0.1,4.1-0.1,5.5c0,3.7,0.3,5.9,0.9,6.5c1.7,1.4,4.3,2.1,7.6,2.1c4.2,0,9.3-5.9,15.2-17.7
			c1,3.3,2.5,6.4,4.4,9.2c1.9,2.8,4.4,5,7.4,6.6c3.1,1.8,6.6,2.7,10.2,2.6c12.8,0,23.2-5.5,31-16.6c-0.1,0.8-0.1,1.6-0.2,2.5
			c-0.5,5.8-0.7,9.2-0.7,10.2c0,1,0.9,1.8,2.8,2.3c1.9,0.6,3.9,0.9,5.9,0.9c1.4,0,2.1-1.2,2.1-3.6l0-4c0-2.9,0.3-5.7,0.8-8.5
			c0.3-1.6,2.5-5.4,6.7-11.3c4.2-5.9,6.8-8.9,7.8-8.9c1,0,1.5,1.4,1.5,4.3s-0.2,7.1-0.7,12.9c-0.5,5.7-0.7,9.9-0.7,12.4
			s0.3,4.1,0.9,4.7c1.7,1.4,4.3,2.1,7.6,2.1c3.8,0,8.3-4.8,13.6-14.5c0.5,3.3,1.9,6.4,4,9c2.7,3.6,7,5.6,11.5,5.5
			c8.4,0,15.4-4.6,21.1-13.8c0.9-1.5,1.8-3,2.5-4.4c-1,10.5-1.5,19.6-1.5,27.4c0,9.1,0.1,15.7,0.4,19.8c0.2,2.8,1,5.6,2.2,8.1
			c0.9,2.3,3.2,3.8,5.7,3.6c3.1,0,6.1-1.4,8.1-3.9c2.4-2.9,4-6.4,4.8-10.1c1.8-7.5,2.7-15.3,2.7-23c0-9.2-1.1-18.3-3.4-27.1
			c4.8-1.6,9.4-3.9,13.6-6.9c1.7-1.3,2.6-2.4,2.6-3.2C688.3,351.1,688,350.7,687.5,350.7z M626,349.3c2.1-4.2,4.6-6.3,7.6-6.3
			c2.5,0,3.7,1.9,3.7,5.8c0.2,3.5-1.1,6.9-3.5,9.4c-2.4,2.4-6.1,4.1-11.2,4.9C622.7,358.4,623.9,353.6,626,349.3z M578.9,329.2
			c1.5-9.6,3-14.3,4.5-14.3c0.9,0,1.4,1.8,1.4,5.4c0,7.1-2.5,16-7.6,26.6C577.6,340.2,578.1,334.3,578.9,329.2z M395.5,376.1
			c-0.4,2.1-1.1,3.2-1.9,3.2s-1.3-1.8-1.3-5.4c0-3.6,1-7.6,3.1-12.2c0.5,2.6,0.7,5.2,0.8,7.8C396.2,371.7,395.9,373.9,395.5,376.1z
			 M469.7,353.7c-0.1,1.7-0.2,2.9-0.3,3.5c-5.5,14.2-9.7,21.3-12.5,21.3c-2.3,0-4.2-1.6-5.6-4.7s-2.1-7.1-2.1-11.9
			c-0.1-4.5,1.3-9,4.1-12.6c2.7-3.5,5.3-5.3,7.7-5.3c1.8,0.1,3.6,0.8,5.1,1.9c1.7,1,3,2.3,4.1,3.9C470,350.7,469.9,352,469.7,353.7z
			 M655.7,345.6c-0.3,1.5-0.6,3.9-0.9,7c-0.7-1.2-1.1-2.6-1-4C653.6,347.3,654.4,346,655.7,345.6z M668,319.5
			c1.6-6.3,3.1-9.4,4.5-9.4c0.8,0,1.2,1.9,1.2,5.7s-1,8.5-3.1,14.2c-1.8,5.1-4.1,10-6.8,14.7C664.6,336.1,666.1,327.8,668,319.5
			L668,319.5z M662.9,351.1l0.8-1.3c1.7,2.6,3,5.4,3.9,8.3c-0.7,0.1-1.5,0.1-2.3,0.1c-1,0-2.1-0.2-3-0.5L662.9,351.1z M669.2,411
			c-1.7,6.8-3.9,10.2-6.5,10.2c-1.5,0-2.2-6.9-2.2-20.6c0-13.7,0.4-25.9,1.2-36.5c2.4,0,4.9-0.4,7.2-1c1.9,8.3,2.8,16.8,2.8,25.3
			C671.9,395.9,671,403.5,669.2,411L669.2,411z"/>
		<path class="st4" d="M485.8,324.1c1,0.7,2.2,1.1,3.4,1.2c4.4,0,6.6-2.2,6.6-6.6c0-1.1-0.5-2.2-1.4-2.8c-1-0.8-2.2-1.2-3.5-1.2
			c-1.6,0.1-3.2,0.6-4.5,1.6c-1.5,0.8-2.4,2.4-2.4,4.1C483.9,321.8,484.6,323.2,485.8,324.1z"/>
		<path class="st4" d="M503.2,324.1c1,0.7,2.3,1.1,3.5,1.2c4.3,0,6.5-2.2,6.5-6.6c0-1.1-0.5-2.2-1.4-2.8c-1-0.8-2.2-1.2-3.4-1.2
			c-1.6,0.1-3.2,0.6-4.5,1.6c-1.5,0.8-2.5,2.4-2.5,4.1C501.3,321.8,501.9,323.2,503.2,324.1z"/>
		<path class="st4" d="M685.9,349c-1.7,0.8-3.4,1.6-5,2.6c-3.7,1.9-7.6,3.4-11.7,4.3c-1.1-3.9-2.8-7.7-5-11.1
			c7.1-12.1,10.7-22.9,10.7-32.6c0-6.1-1.4-9.2-4.1-9.2c-2.4,0-4.8,1.7-7.2,5.1c-2.7,4-4.5,8.5-5.4,13.2c-1.2,5.4-2.3,11.9-3.5,19.4
			c-2.1,0.5-3.9,1.7-5.2,3.4c-1.4,1.8-2.1,4.3-2.1,7.5c0,2.8,1.3,5.5,3.5,7.3c-2,3.9-4.3,7.7-7,11.2c-1.5,2.1-3.5,3.8-5.7,5.2
			c-2.1,1.2-4.5,1.8-7,1.8c-2.6,0-4.9-1.2-6.8-3.7c-2-2.5-3.2-5.5-3.4-8.7c6.3-0.2,11.6-2,16-5.5c4.3-3.5,6.5-7.8,6.5-13
			c0.1-2.5-0.9-4.9-2.8-6.5c-2-1.6-4.6-2.5-7.2-2.4c-6-0.1-11.7,2.5-15.4,7.2c-3.4,4.2-5.4,10.1-5.8,17.7c-1.6,3.3-3.5,6.5-5.7,9.5
			c-2.6,3.6-4.6,5.4-6.1,5.5c-0.5,0-0.8-1-0.8-2.9s0.4-6.6,1.2-14c0.7-5.5,1.1-11.1,1.2-16.7c0-1.8-0.8-3.4-2.1-4.5
			c-1.3-1.2-3.1-1.8-4.9-1.8c-1.8,0-3.9,1.2-6.2,3.7c-3.1,3.7-5.9,7.6-8.3,11.8c-3.3,5.3-5.1,8.3-5.4,8.8c0-4.6,0-7.9,0.1-10.1
			c2.6-3.4,5.1-8.4,7.6-14.9c2.5-6.6,3.8-13.7,3.7-20.8c0.1-2.5-0.3-5-1.3-7.4c-0.9-1.9-1.7-2.8-2.6-2.8c-2,0.1-4,0.8-5.6,2.1
			c-7.8,6-11.8,20.1-11.8,42.1v7.4c0,0.5,0,1.1,0,1.8c-0.5,1-1.1,1.9-1.7,2.8c-7.2,10.3-14.6,15.5-22.4,15.5
			c-6.6,0-11.6-2.5-15.2-7.4c-3.6-4.9-5.6-10.9-5.5-17c0-9.2,2.6-18.2,7.9-26.9c5.3-8.7,11.1-13,17.6-13c6.5,0,9.8,3.1,9.8,9.2
			c-0.1,2.2-1,4.3-2.5,6c-1.7,2-2.5,3.7-2.5,5.3c0,1.4,1.3,2.1,3.8,2.1s4.7-1.5,6.5-4.6c1.8-3.1,2.7-6.5,2.7-10.1
			c0.1-3.4-1.3-6.7-3.9-9c-2.7-2.4-6.3-3.7-9.9-3.6c-10.7,0-19.9,4.6-27.7,13.8c-7.8,9.2-11.7,21.3-11.7,36.3c0,0.8,0,1.6,0.1,2.4
			c-1.8,3.9-4,7.6-6.4,11.1c-2.6,3.6-4.6,5.4-6.1,5.5c-0.5,0-0.8-1.2-0.8-3.5c0-12.5,0.6-20,1.7-22.4c0.8-1.7,1.3-3.6,1.6-5.5
			c0.4-1.6,0.6-3.3,0.7-4.9c0-3.3-0.6-4.9-1.9-4.9s-3,0.9-5.2,2.8c-1.5,1.1-2.8,2.4-4,3.9c-0.4,0.7-0.9,5.4-1.5,14.1
			c-0.1,1.8-0.2,3.3-0.3,4.9c-1.7,3.5-3.7,6.9-6,10.1c-2.6,3.6-4.6,5.4-6.1,5.5c-0.5,0-0.8-1.2-0.8-3.5c0-12.1,0.4-19.1,1.2-21.1
			c0.8-1.7,1.3-3.6,1.6-5.4c0.4-1.7,0.6-3.3,0.7-5c0-3.3-0.6-4.9-1.9-4.9c-1.2,0-2.8,0.7-4.5,2c-1.4,1-2.6,2.1-3.7,3.4
			c-3.5-3.6-6.6-5.4-9.3-5.4c-6.4,0-11.5,2.7-15.4,8c-1,1.4-1.9,2.8-2.6,4.3c-0.1,0-0.2-0.1-0.3-0.1c-0.6,0-2.1,2.8-4.6,8.5
			c-2.1,4.9-4.7,9.5-7.8,13.8c-2.6,3.6-4.7,5.4-6.3,5.4c-1.6,0-2.3-7-2.3-21.1c0-14.1,0.5-24.7,1.5-32.1c5.1-6,7.6-11.9,7.6-17.7
			c0-2-0.7-4-2-5.6c-1.3-1.8-2.6-2.7-3.8-2.7c-3.5,0-6.6,8.1-9.3,24.4c-6.2,6.8-11.8,14.1-16.5,22c-2.9-8.5-6.9-16.5-12-23.8
			c0-2.3-0.3-4.7-0.9-6.9c-0.6-2.2-1.3-3.3-2.2-3.3c-2.8,0-4.9,0.9-6.2,2.7c-1.3,1.8-1.9,4-1.9,6.3c0,2.4,1.9,6,5.6,10.8
			c-1.4,8.9-3.6,17.7-6.5,26.2c-3,8.5-6.1,14.6-9.5,18.1c-1,0.7-2.2,1.2-3.4,1.4c-1.6,0.3-3.2,0.9-4.6,1.8c-1.3,0.8-1.9,2.1-1.9,4
			c0,2.3,1.5,3.5,4.5,3.5c4.1,0,7.7-2,10.7-6c3-4,5.9-10.1,8.8-18.3c2.7-7.8,4.9-15.9,6.3-24c3.2,5.6,5.7,11.5,7.5,17.7
			c-3.7,7.7-5.6,13.8-5.6,18.5c0,6.8,1.8,10.2,5.3,10.2c2.9,0,5.4-1.4,7.3-4.1c1.9-2.8,2.9-6.6,3-11.7c-0.1-6.1-1.1-12.1-2.7-17.9
			c3.9-6.1,8.5-11.7,13.7-16.8c-1.2,12.5-1.7,25.1-1.5,37.7c0,6.6,0.4,10.3,1.3,11.4c0.8,0.7,1.8,1.2,2.8,1.4
			c1.7,0.5,3.4,0.7,5.2,0.7c5,0,10.6-6.7,16.9-20c0.2-0.5,0.5-1,0.7-1.6c0,0.5-0.1,1-0.1,1.5c0,6.9,1.3,12,3.9,15.2
			c2.6,3.2,5.6,4.8,9.1,4.8c3.3,0.1,6.5-1.5,8.5-4.1c2.2-2.7,4.4-6.9,6.7-12.5c-0.2,4.1-0.2,7.4-0.3,9.9s0.3,4,0.9,4.6
			c1.7,1.4,4.3,2.1,7.6,2.1c3.7,0,8.2-4.7,13.3-14.1c-0.1,2.2-0.1,4.1-0.1,5.5c0,3.7,0.3,5.9,0.9,6.5c1.8,1.4,4.3,2.1,7.6,2.1
			c4.2,0,9.3-5.9,15.2-17.7c1,3.3,2.5,6.4,4.4,9.2c1.9,2.8,4.4,5,7.4,6.6c3.1,1.7,6.6,2.6,10.2,2.6c12.8,0,23.2-5.5,31-16.6
			c-0.1,0.8-0.1,1.7-0.2,2.5c-0.5,5.8-0.7,9.2-0.7,10.2c0,1,0.9,1.8,2.8,2.3c1.9,0.6,3.9,0.9,5.9,0.9c1.4,0,2.1-1.2,2.1-3.6l-0.1-4
			c0-2.9,0.3-5.7,0.8-8.5c0.3-1.6,2.5-5.4,6.7-11.3c4.2-5.9,6.8-8.8,7.8-8.9c1,0,1.5,1.4,1.5,4.3s-0.2,7.1-0.7,12.9
			c-0.5,5.7-0.7,9.9-0.7,12.4s0.3,4.1,0.9,4.7c1.8,1.4,4.3,2.1,7.6,2.1c3.8,0,8.3-4.8,13.6-14.5c0.5,3.3,1.9,6.4,4,9.1
			c2.7,3.6,7,5.7,11.5,5.5c8.4,0,15.4-4.6,21.1-13.8c0.9-1.5,1.8-3,2.5-4.3c-1,10.5-1.5,19.6-1.5,27.4c0,9.1,0.1,15.7,0.4,19.8
			c0.2,2.8,1,5.6,2.2,8.1c0.9,2.3,3.2,3.8,5.7,3.6c3.1,0,6.1-1.4,8.1-3.9c2.4-2.9,4-6.4,4.9-10.1c1.8-7.5,2.7-15.3,2.7-23
			c0-9.2-1.1-18.3-3.4-27.1c4.8-1.6,9.4-3.9,13.6-6.8c1.7-1.3,2.6-2.4,2.6-3.2C686.6,349.5,686.4,349,685.9,349z M624.3,347.7
			c2.1-4.2,4.6-6.3,7.6-6.2c2.5,0,3.8,1.9,3.8,5.8c0.1,3.5-1.1,6.9-3.6,9.4c-2.4,2.4-6.1,4-11.2,4.9
			C621.1,356.8,622.2,352,624.3,347.7L624.3,347.7z M577.3,327.6c1.5-9.6,3-14.3,4.5-14.3c0.9,0,1.4,1.8,1.4,5.4
			c0,7.2-2.5,16-7.6,26.6C575.9,338.6,576.5,332.7,577.3,327.6z M393.9,374.4c-0.4,2.1-1.1,3.2-1.9,3.2s-1.3-1.8-1.3-5.4
			c0-3.6,1-7.6,3.1-12.2c0.5,2.6,0.8,5.2,0.8,7.8C394.5,370,394.3,372.3,393.9,374.4z M468.1,352.1c-0.1,1.7-0.2,2.9-0.3,3.5
			c-5.5,14.2-9.7,21.4-12.5,21.4c-2.3,0-4.2-1.5-5.6-4.6c-1.4-3.1-2.1-7.1-2.1-11.9c-0.1-4.5,1.3-9,4.1-12.6
			c2.7-3.6,5.3-5.4,7.7-5.4c1.8,0.1,3.6,0.8,5.1,1.9c1.7,1,3.1,2.3,4.1,3.9C468.4,349.1,468.3,350.4,468.1,352.1L468.1,352.1z
			 M654.1,344c-0.3,1.5-0.6,3.9-0.9,7c-0.7-1.2-1.1-2.6-1-4C652,345.7,652.8,344.4,654.1,344z M666.4,317.9c1.6-6.3,3.1-9.4,4.5-9.4
			c0.8,0,1.2,1.9,1.2,5.7s-1,8.5-3.1,14.2c-1.8,5.1-4.1,10-6.9,14.7C663,334.5,664.5,326.2,666.4,317.9L666.4,317.9z M661.3,349.4
			l0.8-1.3c1.7,2.6,3,5.3,3.9,8.3c-0.8,0.1-1.5,0.1-2.3,0.1c-1,0-2.1-0.2-3-0.5L661.3,349.4z M667.6,409.3
			c-1.7,6.8-3.9,10.1-6.5,10.1c-1.5,0-2.2-6.9-2.2-20.6s0.4-25.9,1.2-36.5c2.4,0,4.9-0.4,7.2-1c1.9,8.3,2.8,16.8,2.8,25.3
			C670.3,394.2,669.4,401.9,667.6,409.3L667.6,409.3z"/>
		<path class="st0" d="M484.5,322.7c1,0.7,2.2,1.1,3.4,1.2c4.4,0,6.6-2.2,6.6-6.6c0-1.1-0.5-2.2-1.4-2.8c-1-0.8-2.2-1.2-3.5-1.2
			c-1.6,0.1-3.2,0.6-4.5,1.5c-1.5,0.8-2.4,2.4-2.4,4.1C482.6,320.5,483.3,321.9,484.5,322.7z"/>
		<path class="st0" d="M501.8,322.7c1.1,0.7,2.3,1.1,3.6,1.1c4.3,0,6.5-2.2,6.5-6.6c0-1.1-0.5-2.2-1.4-2.8c-1-0.8-2.2-1.2-3.4-1.1
			c-1.6,0.1-3.2,0.6-4.5,1.5c-1.5,0.8-2.5,2.4-2.5,4.1C499.9,320.5,500.6,321.9,501.8,322.7z"/>
		<path class="st0" d="M684.5,347.7c-1.7,0.8-3.4,1.6-5,2.6c-3.7,1.9-7.6,3.4-11.7,4.3c-1.1-3.9-2.8-7.7-5-11.1
			c7.2-12.1,10.7-22.9,10.7-32.5c0-6.1-1.4-9.2-4.1-9.2c-2.4,0-4.8,1.7-7.2,5.1c-2.7,4-4.5,8.5-5.4,13.3c-1.2,5.4-2.4,11.9-3.6,19.4
			c-2.1,0.5-3.9,1.7-5.2,3.4c-1.4,1.8-2.1,4.3-2.1,7.5c0,2.8,1.3,5.5,3.5,7.2c-2,3.9-4.3,7.7-7,11.2c-1.5,2.1-3.5,3.8-5.7,5.2
			c-2.1,1.2-4.5,1.8-7,1.8c-2.6,0-4.8-1.2-6.8-3.7c-2-2.5-3.1-5.5-3.4-8.7c6.3-0.2,11.6-2,16-5.5c4.4-3.5,6.5-7.8,6.5-13
			c0.1-2.5-0.9-4.9-2.8-6.5c-2-1.6-4.6-2.5-7.2-2.4c-6-0.1-11.7,2.5-15.4,7.2c-3.4,4.2-5.4,10.1-5.8,17.7c-1.6,3.3-3.5,6.5-5.7,9.5
			c-2.6,3.6-4.6,5.4-6.1,5.5c-0.5,0-0.8-1-0.8-2.9s0.4-6.6,1.2-14c0.7-5.5,1.1-11.1,1.2-16.7c0-1.8-0.8-3.4-2.1-4.5
			c-1.3-1.2-3.1-1.8-4.8-1.8c-1.8,0-3.9,1.3-6.2,3.8c-3.1,3.7-5.9,7.6-8.3,11.8c-3.3,5.3-5.1,8.3-5.4,8.8c0-4.6,0-7.9,0.1-10.1
			c2.6-3.5,5.1-8.4,7.6-14.9c2.5-6.6,3.8-13.7,3.7-20.8c0.1-2.5-0.3-5-1.3-7.4c-0.9-1.9-1.7-2.8-2.6-2.8c-2,0-4,0.7-5.6,2
			c-7.8,6-11.8,20.1-11.8,42.2v7.5c0,0.5,0,1.1,0,1.8c-0.5,1-1.1,1.9-1.7,2.8c-7.1,10.3-14.6,15.5-22.4,15.5
			c-6.5,0-11.6-2.5-15.2-7.4c-3.6-4.9-5.6-10.9-5.5-17c0-9.2,2.6-18.2,7.9-26.9c5.3-8.7,11.2-13.1,17.6-13.1c6.5,0,9.8,3.1,9.8,9.2
			c-0.1,2.2-1,4.3-2.5,5.9c-1.7,2-2.5,3.7-2.5,5.3c0,1.4,1.3,2.1,3.8,2.1s4.7-1.5,6.5-4.6c1.8-3.1,2.7-6.5,2.7-10.1
			c0.1-3.4-1.3-6.7-3.9-9c-2.7-2.4-6.3-3.7-10-3.5c-10.7,0-19.9,4.6-27.7,13.8c-7.8,9.2-11.7,21.3-11.7,36.2c0,0.8,0,1.6,0.1,2.4
			c-1.8,3.9-4,7.6-6.4,11.1c-2.6,3.6-4.6,5.4-6.1,5.5c-0.5,0-0.8-1.2-0.8-3.5c0-12.5,0.6-19.9,1.7-22.4c0.8-1.8,1.3-3.6,1.6-5.6
			c0.4-1.6,0.6-3.3,0.7-4.9c0-3.3-0.6-4.9-1.9-4.9c-1.2,0-3,0.9-5.3,2.8c-1.5,1.1-2.8,2.4-4,3.9c-0.4,0.7-0.9,5.4-1.5,14
			c-0.1,1.8-0.2,3.3-0.3,4.9c-1.7,3.5-3.7,6.9-6,10.1c-2.6,3.6-4.6,5.4-6,5.5c-0.5,0-0.8-1.2-0.8-3.5c0-12.1,0.4-19.1,1.2-21.1
			c0.8-1.7,1.3-3.5,1.6-5.4c0.4-1.7,0.6-3.3,0.7-5c0-3.3-0.6-4.9-1.9-4.9c-1.2,0-2.8,0.7-4.5,2c-1.4,1-2.6,2.1-3.7,3.4
			c-3.4-3.6-6.5-5.4-9.3-5.4c-6.4,0-11.5,2.7-15.4,8c-1,1.4-1.9,2.8-2.6,4.3c-0.1,0-0.2-0.1-0.3-0.1c-0.6,0-2.1,2.8-4.6,8.5
			c-2.1,4.9-4.7,9.5-7.8,13.8c-2.6,3.6-4.7,5.4-6.3,5.4s-2.3-7-2.3-21.1c0-14.1,0.5-24.7,1.6-32c5.1-6,7.6-12,7.6-17.8
			c0-2-0.8-4-2-5.6c-1.3-1.8-2.6-2.7-3.8-2.7c-3.5,0-6.6,8.1-9.3,24.4c-6.2,6.8-11.8,14.1-16.5,22c-2.9-8.4-7-16.5-12.1-23.8
			c0-2.3-0.3-4.7-0.9-6.9c-0.6-2.2-1.3-3.3-2.2-3.3c-2.8,0-4.9,0.9-6.2,2.7c-1.3,1.8-1.9,4-1.9,6.3c0,2.3,1.9,5.9,5.6,10.8
			c-1.4,8.9-3.6,17.7-6.5,26.2c-3,8.5-6.1,14.5-9.5,18.1c-1,0.7-2.2,1.2-3.4,1.4c-1.6,0.3-3.2,0.9-4.6,1.8c-1.3,0.9-2.1,2.4-1.9,4
			c0,2.3,1.5,3.5,4.5,3.5c4.1,0,7.7-2,10.7-6c3-4,6-10.1,8.8-18.3c2.8-7.8,4.9-15.9,6.3-24c3.2,5.6,5.7,11.5,7.5,17.7
			c-3.7,7.7-5.6,13.8-5.6,18.5c0,6.8,1.8,10.2,5.3,10.2c2.9,0,5.4-1.4,7.3-4.1S401,371,401,366c-0.1-6.1-1.1-12.1-2.7-17.9
			c4-6.1,8.6-11.7,13.7-16.8c-1,9.7-1.6,22.2-1.6,37.7c0,6.6,0.4,10.3,1.3,11.4c0.8,0.7,1.8,1.1,2.8,1.4c1.7,0.5,3.4,0.7,5.2,0.7
			c5,0,10.6-6.7,16.9-20c0.2-0.5,0.5-1,0.7-1.6c0,0.5-0.1,1-0.1,1.5c0,6.9,1.3,12,3.9,15.2c2.6,3.2,5.6,4.8,9,4.8
			c3.3,0.1,6.5-1.4,8.5-4.1c2.2-2.7,4.4-6.9,6.7-12.5c-0.2,4.1-0.3,7.4-0.3,9.9s0.3,4,0.9,4.6c1.8,1.4,4.3,2.1,7.6,2.1
			c3.7,0,8.2-4.7,13.3-14.1c-0.1,2.2-0.1,4.1-0.1,5.5c0,3.7,0.3,5.9,0.9,6.5c1.7,1.4,4.3,2.1,7.6,2.1c4.2,0,9.3-5.9,15.2-17.7
			c1,3.3,2.5,6.4,4.4,9.2c1.9,2.8,4.4,5,7.4,6.6c3.1,1.7,6.6,2.6,10.2,2.6c12.8,0,23.2-5.5,31-16.6c-0.1,0.8-0.1,1.6-0.2,2.5
			c-0.5,5.8-0.7,9.2-0.7,10.2c0,1,0.9,1.8,2.8,2.3c1.9,0.6,3.9,0.9,6,0.9c1.4,0,2.1-1.2,2.1-3.6l-0.1-4c0-2.9,0.3-5.7,0.8-8.5
			c0.3-1.6,2.5-5.4,6.7-11.3c4.2-5.9,6.8-8.9,7.8-8.9c1,0,1.5,1.4,1.5,4.3c0,2.8-0.2,7.1-0.7,12.9c-0.5,5.7-0.7,9.9-0.7,12.4
			s0.3,4.1,0.9,4.7c1.7,1.4,4.3,2.1,7.6,2.1c3.8,0,8.3-4.8,13.6-14.5c0.5,3.3,1.9,6.4,4,9c2.7,3.6,7,5.6,11.5,5.5
			c8.4,0,15.4-4.6,21.1-13.8c0.9-1.5,1.8-3,2.5-4.4c-1,10.5-1.5,19.6-1.5,27.4c0,9.1,0.1,15.7,0.4,19.8c0.2,2.8,1,5.6,2.2,8.1
			c0.9,2.3,3.2,3.8,5.7,3.6c3.1,0,6.1-1.4,8.1-3.9c2.4-2.9,4-6.4,4.8-10.1c1.8-7.5,2.7-15.3,2.7-23c0.1-9.2-1.1-18.3-3.3-27.2
			c4.8-1.6,9.4-3.9,13.6-6.9c1.7-1.3,2.6-2.4,2.6-3.2C685.3,348.1,685,347.7,684.5,347.7z M623,346.3c2.1-4.2,4.6-6.3,7.6-6.3
			c2.5,0,3.7,1.9,3.7,5.8c0.2,3.5-1.1,6.9-3.5,9.4c-2.4,2.4-6.1,4.1-11.2,4.9C619.7,355.4,620.9,350.7,623,346.3z M575.9,326.2
			c1.5-9.6,3-14.3,4.5-14.3c0.9,0,1.4,1.8,1.4,5.4c0,7.2-2.5,16-7.6,26.6C574.5,338,575.1,332.1,575.9,326.2z M392.5,373.1
			c-0.4,2.1-1.1,3.2-1.9,3.2s-1.3-1.8-1.3-5.4c0-3.6,1-7.6,3.1-12.2c0.5,2.6,0.7,5.2,0.8,7.8C393.2,368.7,392.9,370.9,392.5,373.1z
			 M466.8,350.7c-0.1,1.7-0.2,2.9-0.3,3.5c-5.5,14.2-9.7,21.3-12.5,21.3c-2.3,0-4.2-1.6-5.6-4.6s-2.1-7-2.1-11.9
			c-0.1-4.5,1.3-9,4.1-12.6c2.7-3.6,5.3-5.4,7.7-5.4c1.8,0.1,3.6,0.8,5.1,1.9c1.7,1,3,2.3,4.1,3.9C467,347.8,466.9,349,466.8,350.7
			L466.8,350.7z M652.7,342.7c-0.3,1.5-0.6,3.9-0.9,7c-0.7-1.2-1.1-2.6-1-4C650.6,344.3,651.4,343,652.7,342.7L652.7,342.7z
			 M665,316.6c1.6-6.3,3.1-9.4,4.5-9.4c0.8,0,1.2,1.9,1.2,5.7s-1,8.5-3.1,14.2c-1.8,5.1-4.1,10-6.8,14.7
			C661.7,333.2,663.1,324.8,665,316.6L665,316.6z M660,348.1l0.8-1.3c1.7,2.6,3,5.3,3.9,8.3c-0.7,0.1-1.5,0.1-2.3,0.1
			c-1,0-2.1-0.2-3-0.5L660,348.1z M666.3,408c-1.7,6.8-3.9,10.1-6.5,10.1c-1.5,0-2.2-6.9-2.2-20.6c0-13.7,0.4-25.9,1.2-36.5
			c2.4,0,4.9-0.4,7.2-1c1.9,8.3,2.8,16.8,2.8,25.3C669,392.9,668.1,400.5,666.3,408L666.3,408z"/>
	</g>
</g>
<g id="Calque_2_00000150793967126663588560000001150531455775631535_">
	<g id="Calque_3_00000014607492187407124230000008611149041193927841_">
		<rect x="365.7" y="252.9" class="st0" width="24.3" height="9"/>
		<path class="st0" d="M401.9,211.7c-2.8-1.4-5.5-0.8-8,0.9c-0.5,0.4-1,0.8-1.6,1.1c-0.7,0.5-1.6,0.7-2.4,0.6v-38.7
			c-10,0.2-17.9,8.4-17.8,18.5c0.1,4.3,1.6,8.4,4.4,11.6l-1.9,1.7c-4.1-4.8-5.9-11.2-4.8-17.5c-2.8-0.8-5.8-0.9-8.7-0.2
			c-9.5,2.2-15.6,11.7-13.7,21.4c1.5,7.8,8.4,14,16.1,14.4c1.7,0.1,2,0.4,2,2.1c0,7.1,0,14.2,0,21.3v1.1H390v-26.6
			c0.3,0,0.6,0,0.9,0.1c1.1,0.3,2.1,0.8,3,1.6c1.9,1.5,4.3,2,6.6,1.4c3.4-0.9,5.4-3.8,5.4-7.8C406,215.7,404.8,213.2,401.9,211.7z
			 M378.4,242.1H376v-16.8h2.4V242.1z"/>
		<rect x="410.3" y="252.9" class="st0" width="24.9" height="9"/>
		<path class="st0" d="M436.8,189.4c-2-0.2-3.9,0-5.8,0.6c0.7,7.1-1.1,13.9-4.4,16.9l-1.9-1.5c6.2-7.9,5-19.3-2.7-25.6
			c-3.3-2.7-7.4-4.1-11.6-4v36.8c0.5,0,1.1-0.1,1.5-0.5c0.8-0.5,1.5-1.1,2.3-1.7c4.5-3,10-1.9,12.8,2.7c2,3.2,2.2,7.2,0.5,10.6
			c-0.6,1.4-1.5,2.5-2.7,3.5v15h-2.5v-13.6c-1.4,0.5-2.9,0.6-4.4,0.4c-2.1-0.3-3.7-1.4-5.3-2.6c-0.7-0.6-1.4-1.1-2.3-1v24.9h24.9
			v-22.6c0-1.5,0.4-1.8,1.8-1.9c8.6-0.5,16-7.8,16.5-16.6C454.3,199,446.8,190.2,436.8,189.4C436.8,189.4,436.8,189.4,436.8,189.4z"
			/>
		<path class="st4" d="M376.6,205.8l-1.9,1.7c-4.1-4.8-5.9-11.2-4.8-17.5c-2.8-0.8-5.8-0.9-8.7-0.2c-9.5,2.2-15.6,11.7-13.7,21.4
			c1.5,7.8,8.4,14,16.1,14.4c1.7,0.1,2,0.4,2,2.1c0,7.1,0,14.2,0,21.3v1.1H390v2.7h-24.3v9H390v2.7h-24.9c-1.8,0-2-0.3-2-2.1v-32.8
			c0-1.4,0-1.4-1.4-1.6c-8.8-1.5-15.6-8.6-16.8-17.5c-1.5-10.6,5.1-20.6,15.4-23.2c3.4-0.9,6.9-0.9,10.2,0
			c3.6-8.9,9.9-14.2,19.5-14.3v2.6c-10,0.2-17.9,8.4-17.8,18.5C372.3,198.5,373.8,202.6,376.6,205.8z"/>
		<rect x="376" y="225.4" class="st4" width="2.4" height="16.8"/>
		<path class="st4" d="M455.8,203.6c-0.8-4.7-3.3-9-7-12c-5.4-4.5-11.7-5.8-18.5-4.3c-3.7-9.1-10.2-14.3-20-14.2v2.6
			c4.2-0.1,8.4,1.3,11.6,4c7.7,6.3,8.9,17.8,2.8,25.6l1.9,1.5c3.3-3,5.1-9.8,4.4-16.9c1.9-0.6,3.9-0.7,5.8-0.6
			c10,0.8,17.5,9.5,16.8,19.6c0,0,0,0,0,0.1c-0.6,8.7-7.9,16.1-16.5,16.5c-1.4,0.1-1.8,0.4-1.8,1.9v22.6h-24.9v2.7h24.9v9h-24.9v2.7
			h25.5c1.7,0,2-0.3,2-2v-34.3c6-0.8,10.8-3.4,14.4-8.3C455.7,215.3,457,209.3,455.8,203.6z"/>
		<path class="st4" d="M422.3,228.5v13.6h2.5v-15C424,227.7,423.2,228.2,422.3,228.5z"/>
		<path class="st0" d="M506.1,232.4c0,10.2,0.6,15.2,1.7,15.2c1.1,0,2.6-1.3,4.5-3.9c2.2-3.1,4.1-6.5,5.6-10
			c1.8-4.1,2.9-6.1,3.3-6.1c0.4,0,0.6,0.2,0.6,0.7c0,1.7-1.1,4.9-3.2,9.5c-4.5,9.7-8.6,14.5-12.1,14.5c-1.3,0-2.5-0.2-3.7-0.5
			c-0.8-0.2-1.5-0.5-2-1c-0.6-0.7-0.9-3.5-0.9-8.2c0-11.2,0.4-20.3,1.1-27.3c-3.7,3.7-7,7.8-9.8,12.1c1.2,4.2,1.8,8.5,1.9,12.9
			c0,3.6-0.7,6.5-2.1,8.5c-1.4,2-3.1,3-5.2,3c-2.5,0-3.8-2.5-3.8-7.4c0-3.4,1.3-7.8,4-13.3c-1.3-4.5-3.1-8.8-5.4-12.8
			c-1.1,5.9-2.6,11.7-4.5,17.4c-2,5.9-4.1,10.3-6.3,13.2s-4.7,4.3-7.7,4.3c-2.2,0-3.2-0.8-3.2-2.5c0-1.4,0.5-2.3,1.4-2.9
			c1-0.6,2.1-1,3.3-1.3c0.9-0.1,1.7-0.5,2.5-1c2.4-2.5,4.7-6.9,6.8-13.1c2.1-6.2,3.7-12.5,4.7-19c-2.7-3.5-4-6.1-4-7.8
			c0-1.6,0.4-3.2,1.3-4.5c0.9-1.3,2.4-2,4.4-2c0.6,0,1.1,0.8,1.6,2.4c0.4,1.6,0.6,3.3,0.6,5c3.6,5.3,6.5,11.1,8.6,17.2
			c3.4-5.7,7.4-11,11.9-15.9c1.9-11.8,4.1-17.7,6.7-17.7c0.9,0,1.8,0.6,2.7,2c0.9,1.1,1.4,2.6,1.4,4c0,4.2-1.8,8.5-5.5,12.9
			C506.4,214.5,506.1,222.3,506.1,232.4z M486.8,235.2c-1.5,3.3-2.2,6.2-2.2,8.8s0.3,3.9,0.9,3.9s1.1-0.8,1.4-2.3
			c0.3-1.6,0.5-3.2,0.5-4.8C487.3,238.9,487.1,237.1,486.8,235.2z"/>
		<path class="st0" d="M545.1,252.4c-2.4,0-4.2-0.5-5.5-1.5c-0.4-0.4-0.6-1.5-0.6-3.3c0-1.8,0.1-4.2,0.2-7.1c-1.6,4-3.2,7.1-4.8,9
			c-1.4,1.9-3.7,3-6.1,2.9c-2.5,0-4.6-1.2-6.5-3.5c-1.9-2.3-2.8-6-2.8-11c-0.1-4.8,1.4-9.5,4.2-13.3c2.8-3.9,6.5-5.8,11.1-5.8
			c2,0,4.2,1.3,6.7,3.9c0.8-0.9,1.7-1.8,2.6-2.5c1.3-1,2.3-1.4,3.2-1.4c0.9,0,1.3,1.2,1.3,3.6c-0.1,1.2-0.2,2.4-0.5,3.6
			c-0.2,1.4-0.6,2.7-1.2,3.9c-0.6,1.4-0.8,6.5-0.8,15.2c0,1.7,0.2,2.5,0.6,2.5c1.1-0.1,2.5-1.4,4.4-4c2.2-3.1,4-6.5,5.5-9.9
			c1.8-4,2.9-6.1,3.3-6.1c0.4,0,0.6,0.3,0.6,0.7c0,1.7-0.9,4.5-2.7,8.3C552.6,247.2,548.4,252.4,545.1,252.4z M533.8,222.5
			c-1.7,0-3.6,1.3-5.5,3.9c-2,2.6-3,5.8-2.9,9.1c0,3.5,0.5,6.4,1.5,8.6c1,2.2,2.4,3.4,4,3.4c2,0,5-5.1,9-15.4
			c0.1-0.5,0.1-1.4,0.2-2.5c0.1-1.2,0.2-2.1,0.2-2.8c-0.7-1.2-1.7-2.1-2.9-2.8C536.4,223.1,535.1,222.6,533.8,222.5z"/>
		<path class="st0" d="M552.8,209.2c-0.9-0.6-1.3-1.6-1.3-2.7c0-1.2,0.6-2.4,1.7-3c0.9-0.7,2-1.1,3.2-1.1c0.9,0,1.8,0.3,2.5,0.8
			c0.6,0.5,1,1.3,1,2.1c0,3.2-1.6,4.8-4.7,4.8C554.4,210.1,553.6,209.8,552.8,209.2z M560.7,252.4c-2.4,0-4.2-0.5-5.5-1.5
			c-0.4-0.4-0.6-2-0.6-4.7c0-2.7,0.2-7.1,0.6-13.4c0.4-6.3,0.8-9.6,1.1-10.2c0.8-1,1.8-2,2.9-2.8c1.6-1.4,2.9-2.1,3.8-2.1
			c0.9,0,1.3,1.2,1.3,3.6c-0.1,1.2-0.3,2.4-0.5,3.6c-0.2,1.4-0.6,2.7-1.2,4c-0.8,1.8-1.2,7.2-1.2,16.2c0,1.7,0.2,2.5,0.6,2.5
			c1.1-0.1,2.5-1.4,4.4-4c2.2-3.1,4-6.5,5.5-9.9c1.8-4,2.9-6.1,3.3-6.1c0.4,0,0.6,0.2,0.6,0.7c0,1.7-0.9,4.5-2.7,8.3
			C568.1,247.2,564,252.4,560.7,252.4z M565.3,209.2c-0.9-0.6-1.3-1.6-1.3-2.7c0-1.2,0.7-2.4,1.8-3c1-0.7,2.1-1.1,3.2-1.1
			c0.9,0,1.8,0.3,2.5,0.8c0.6,0.5,1,1.3,1,2.1c0,3.2-1.5,4.8-4.6,4.8C566.9,210.1,566,209.8,565.3,209.2z"/>
		<path class="st4" d="M608.8,236.5c0.7-1.1,1.3-2.1,1.9-3.3c2-3.5,3.2-5.3,3.6-5.3c0.4,0,0.6,0.2,0.6,0.7c0,3.1-1.6,6.9-4.7,11.6
			c-5.7,8.4-13.3,12.6-22.7,12.6c-2.6,0-5.1-0.6-7.3-1.9c-2.1-1.1-3.9-2.8-5.3-4.8c-2.5-3.6-3.9-7.9-4-12.3
			c0-10.8,2.8-19.6,8.4-26.2c5.6-6.6,12.2-9.9,19.9-9.9c2.6-0.1,5.2,0.8,7.1,2.5c1.8,1.7,2.8,4,2.7,6.5c0,2.6-0.7,5.1-1.9,7.3
			c-1.3,2.2-2.9,3.4-4.7,3.4s-2.7-0.5-2.7-1.5c0-1.1,0.6-2.4,1.8-3.8c1.1-1.2,1.7-2.7,1.8-4.3c0-4.4-2.3-6.6-7-6.6
			s-8.9,3.1-12.6,9.4c-3.8,6.3-5.7,12.8-5.7,19.4c-0.1,4.4,1.3,8.8,3.9,12.3c2.6,3.6,6.2,5.4,10.9,5.4
			C598.3,247.7,603.6,244,608.8,236.5z"/>
		<path class="st4" d="M616.7,246.9l0.1,2.9c0,1.7-0.5,2.6-1.5,2.6c-1.4,0-2.9-0.2-4.3-0.6c-1.4-0.4-2-1-2-1.7
			c0-0.7,0.2-3.2,0.5-7.4c0.3-4.2,0.5-7.4,0.5-9.5v-5.4c0-15.9,2.8-26.1,8.4-30.5c1.1-0.9,2.5-1.5,4-1.5c0.6,0,1.3,0.7,1.9,2.1
			c0.7,1.7,1,3.5,0.9,5.3c0,5.1-0.9,10.2-2.7,15c-1.8,4.7-3.6,8.2-5.5,10.7c-0.1,1.6-0.1,4-0.1,7.3c0.2-0.4,1.5-2.5,3.9-6.4
			c1.7-3,3.7-5.9,6-8.5c1.6-1.8,3.1-2.7,4.4-2.7c1.3,0,2.5,0.5,3.5,1.3c1,0.8,1.5,2,1.5,3.2c-0.1,4-0.4,8.1-0.9,12.1
			c-0.6,5.3-0.9,8.7-0.9,10.1c0,1.4,0.2,2.1,0.6,2.1c1.1-0.1,2.5-1.4,4.4-4c2.2-3.1,4-6.5,5.5-9.9c1.8-4,2.9-6.1,3.3-6.1
			c0.4,0,0.6,0.3,0.6,0.7c0,1.7-0.9,4.5-2.7,8.3c-4.9,10.5-9,15.7-12.3,15.7c-2.4,0-4.2-0.5-5.5-1.5c-0.4-0.4-0.6-1.6-0.6-3.4
			c0-1.9,0.2-4.8,0.5-9c0.3-4.1,0.5-7.2,0.5-9.3s-0.4-3.1-1.1-3.1c-0.7,0-2.6,2.1-5.6,6.4c-3,4.3-4.6,7-4.8,8.2
			C616.9,242.7,616.7,244.8,616.7,246.9z M622.7,205.3c0-2.6-0.3-3.9-1-3.9c-1.1,0-2.2,3.5-3.2,10.4c-0.5,3.7-0.9,7.9-1.2,12.8
			C620.8,216.9,622.7,210.5,622.7,205.3z"/>
		<path class="st4" d="M654.7,252.4c-3.2,0.1-6.3-1.4-8.3-4c-2-2.6-3.1-5.7-3.1-9c0-6.8,1.4-11.9,4.3-15.4c2.7-3.4,6.7-5.3,11-5.2
			c1.9-0.1,3.7,0.5,5.2,1.7c1.4,1.2,2.1,2.9,2,4.7c0,3.7-1.6,6.9-4.7,9.4c-3.3,2.6-7.3,4-11.4,4c0.2,2.3,1.1,4.5,2.5,6.3
			c1.4,1.8,3,2.7,4.9,2.7c1.8,0,3.5-0.4,5-1.3c1.6-1,3-2.2,4.1-3.7c2.7-3.6,4.9-7.5,6.7-11.7c0.5-1.1,0.9-1.9,1.2-2.4
			c0.3-0.5,0.6-0.7,0.9-0.7c0.3,0,0.5,0.2,0.5,0.7c0,3.1-1.9,7.8-5.7,14C665.7,249.1,660.6,252.4,654.7,252.4z M649.8,236.3
			c3.6-0.6,6.3-1.8,8-3.6c1.7-1.8,2.7-4.3,2.6-6.8c0-2.8-0.9-4.2-2.7-4.2c-2.2,0-4,1.5-5.5,4.5C650.7,229.4,649.8,232.9,649.8,236.3
			z"/>
		<path class="st4" d="M684.3,232.2c2.9-0.7,5.7-1.7,8.4-3.1c1.2-0.7,2.3-1.3,3.6-1.9c0.4,0,0.6,0.3,0.6,0.9c0,0.6-0.6,1.4-1.9,2.3
			c-3,2.1-6.3,3.8-9.7,5c1.6,6.4,2.4,13,2.4,19.6c0,5.6-0.6,11.2-2,16.7c-0.6,2.7-1.8,5.2-3.5,7.3c-1.4,1.8-3.5,2.8-5.8,2.8
			c-1.8,0.1-3.4-0.9-4.1-2.6c-0.9-1.9-1.4-3.8-1.6-5.9c-0.2-2.9-0.3-7.7-0.3-14.3c0.1-8,0.6-16,1.5-23.9c-2.2-1.6-3.3-3.6-3.3-5.9
			c0-2.3,0.5-4.1,1.5-5.4c0.9-1.2,2.2-2.1,3.7-2.5c0.9-5.4,1.7-10.1,2.5-14c0.6-3.4,1.9-6.7,3.8-9.6c1.7-2.5,3.5-3.7,5.2-3.7
			c2,0,3,2.2,3,6.6c0,7-2.6,14.8-7.7,23.5C682.3,226.7,683.5,229.4,684.3,232.2z M673.5,223.6c-0.9,0.3-1.5,1.2-1.4,2.1
			c0,1,0.2,2,0.7,2.9C673.1,226.4,673.3,224.8,673.5,223.6L673.5,223.6z M677.8,236.9c-0.6,7.7-0.8,16.5-0.8,26.4
			c0,9.9,0.5,14.9,1.6,14.9c1.9,0,3.4-2.4,4.6-7.3c1.3-5.4,1.9-10.9,1.8-16.4c0-6.1-0.7-12.3-2-18.3
			C681.3,236.6,679.6,236.9,677.8,236.9L677.8,236.9z M679.2,226.6l-0.6,0.9l-0.5,4.8c0.7,0.2,1.4,0.4,2.2,0.4c0.5,0,1.1,0,1.6-0.1
			C681.4,230.5,680.4,228.5,679.2,226.6L679.2,226.6z M679.2,222.9c2-3.4,3.6-6.9,4.9-10.6c1.5-4.1,2.2-7.5,2.2-10.2
			c0-2.7-0.3-4.1-0.8-4.1c-1,0-2.1,2.3-3.2,6.8C680.9,210.7,679.9,216.8,679.2,222.9L679.2,222.9z"/>
	</g>
</g>
<g id="Calque_2_00000079455672214184488030000003815631897046042774_">
	<g id="Calque_3_00000053521001131482328900000006287096871096220565_">
		<rect x="174.5" y="321.3" class="st0" width="40" height="14.7"/>
		<path class="st0" d="M234.1,254c-4.6-2.3-9-1.4-13.2,1.5c-0.8,0.6-1.6,1.3-2.5,1.8c-1.2,0.7-2.6,1.1-4,1v-63.1
			c-7.4,0.1-14.4,3-19.8,8c-10.8,10.1-13.2,27.9-2.2,41.1l-3.1,2.8c-7-8.5-9.5-18-7.8-28.6c-4-1.3-9.6-1.5-14.3-0.3
			c-15.8,3.7-25.6,18.9-22.5,34.9c2.4,12.8,13.7,22.9,26.4,23.6c2.8,0.1,3.3,0.6,3.3,3.4c0,11.6,0,23.1,0,34.7v1.9h40.1v-43.5
			c0.5,0,1,0,1.6,0.1c1.8,0.3,3.5,1.5,5,2.6c3.3,2.4,7,3.3,10.9,2.3c5.6-1.5,8.9-6.2,8.9-12.7C240.8,260.5,238.8,256.4,234.1,254z
			 M195.4,303.7h-4v-27.4h4V303.7z"/>
		<rect x="247.9" y="321.3" class="st0" width="41" height="14.7"/>
		<path class="st0" d="M291.4,217.7c-3.2-0.3-6.5,0-9.6,0.9c1.2,11.5-1.8,22.8-7.3,27.6l-3.1-2.5c11-14.2,7.1-32.5-4.5-41.8
			c-5.4-4.4-12.2-6.7-19.2-6.6v60.1c0.9,0,1.8-0.2,2.5-0.7c1.3-0.8,2.5-1.9,3.8-2.7c7.4-4.9,16.5-3,21.1,4.4
			c3.3,5.5,3.6,11.3,0.9,17.2c-1,2.2-2.5,4.2-4.4,5.7v24.5h-4.1v-22.3c-2.3,0.8-4.8,1-7.2,0.6c-3.4-0.5-6.2-2.2-8.8-4.3
			c-1.1-0.9-2.4-1.8-3.8-1.6v40.7H289V315c0-11.7,0-23.4,0-35c0-2.4,0.6-3,3-3.1c14.2-0.7,26.3-12.8,27.1-27.1
			C320,233,308.2,219.2,291.4,217.7z"/>
		<path class="st4" d="M192.4,244.4l-3.1,2.8c-7-8.5-9.5-18-7.8-28.6c-4-1.3-9.6-1.5-14.3-0.3c-15.8,3.7-25.6,18.9-22.5,34.9
			c2.4,12.8,13.7,22.9,26.4,23.6c2.8,0.1,3.3,0.6,3.3,3.4c0,11.6,0,23.1,0,34.7v1.9h40.1v4.5h-40v14.7h40v4.4h-41
			c-2.9,0-3.3-0.4-3.3-3.4v-53.6c0-2.3,0-2.3-2.3-2.7c-14.5-2.4-25.7-14-27.7-28.5c-2.5-17.3,8.4-33.6,25.4-37.9
			c5.5-1.4,11.4-1.4,16.9,0c5.9-14.6,16.3-23.1,32-23.3v4.2c-7.4,0.1-14.4,3-19.8,8C183.8,213.4,181.5,231.2,192.4,244.4z"/>
		<rect x="191.4" y="276.3" class="st4" width="4" height="27.4"/>
		<path class="st4" d="M322.7,240.9c-1.4-7.7-5.4-14.6-11.5-19.5c-9-7.4-19.2-9.5-30.4-7.1c-6.1-14.9-16.8-23.4-33-23.2v4.2
			c7-0.1,13.8,2.2,19.2,6.6c11.6,9.4,15.5,27.7,4.5,41.8l3.1,2.5c5.5-4.9,8.5-16.1,7.3-27.6c3.1-0.9,6.3-1.2,9.6-0.9
			c16.8,1.5,28.6,15.3,27.6,32.1c-0.8,14.3-12.9,26.3-27.1,27.1c-2.4,0.1-3,0.7-3,3.1c0,11.7,0,23.4,0,35v1.9h-41.1v4.4h41v14.7h-41
			v4.4h42c2.8,0,3.3-0.5,3.3-3.3v-56c9.8-1.2,17.8-5.6,23.7-13.6C322.7,259.5,324.5,250.5,322.7,240.9z"/>
		<path class="st4" d="M267.7,281.5v22.3h4.1v-24.5C270.5,280.2,269.1,281,267.7,281.5z"/>
		<path class="st0" d="M184.7,371.6c0,6.6,0.4,9.9,1.1,9.9c0.7,0,1.7-0.8,2.9-2.5c1.4-2,2.7-4.2,3.6-6.5c1.2-2.6,1.9-4,2.2-4
			s0.4,0.2,0.4,0.5c0,1.1-0.7,3.2-2.1,6.2c-3,6.3-5.6,9.4-8,9.4c-0.8,0-1.6-0.1-2.4-0.3c-0.5-0.1-0.9-0.3-1.3-0.6
			c-0.4-0.5-0.6-2.3-0.6-5.3c0-7.3,0.2-13.2,0.7-17.7c-2.4,2.4-4.6,5-6.4,7.9c0.8,2.7,1.2,5.6,1.3,8.4c0,2.4-0.5,4.2-1.4,5.5
			s-2.1,1.9-3.4,1.9c-1.6,0-2.5-1.6-2.5-4.8c0-2.2,0.9-5.1,2.6-8.7c-0.8-2.9-2-5.7-3.5-8.3c-0.7,3.8-1.7,7.6-3,11.3
			c-1.3,3.8-2.7,6.7-4.1,8.6c-1.4,1.9-3.1,2.8-5,2.8c-1.4,0-2.1-0.5-2.1-1.6c0-0.9,0.3-1.5,0.9-1.9c0.7-0.4,1.4-0.7,2.2-0.8
			c0.6-0.1,1.1-0.3,1.6-0.6c1.6-1.6,3.1-4.5,4.5-8.5c1.4-4,2.4-8.1,3.1-12.3c-1.7-2.3-2.6-4-2.6-5.1c0-1,0.3-2.1,0.9-2.9
			c0.6-0.8,1.5-1.3,2.9-1.3c0.4,0,0.7,0.5,1,1.5c0.3,1.1,0.4,2.1,0.4,3.2c2.4,3.4,4.3,7.2,5.6,11.2c2.2-3.7,4.8-7.1,7.8-10.3
			c1.3-7.6,2.7-11.5,4.4-11.5c0.6,0,1.2,0.4,1.8,1.3c0.6,0.7,0.9,1.7,0.9,2.6c0,2.7-1.2,5.5-3.6,8.4
			C184.9,360,184.7,365,184.7,371.6z M172.1,373.4c-1,2.1-1.5,4.1-1.5,5.7c0,1.7,0.2,2.5,0.6,2.5c0.4,0,0.7-0.5,0.9-1.5
			c0.2-1,0.3-2.1,0.3-3.1C172.5,375.8,172.3,374.6,172.1,373.4z"/>
		<path class="st0" d="M210.2,384.6c-1.6,0-2.8-0.3-3.6-1c-0.3-0.3-0.4-1-0.4-2.2c0-1.2,0-2.7,0.1-4.6c-1,2.6-2.1,4.6-3.1,5.9
			c-0.9,1.2-2.4,1.9-4,1.9c-1.6,0-3-0.8-4.2-2.3c-1.2-1.5-1.8-3.9-1.8-7.2c0-3.1,0.9-6.1,2.8-8.6c1.8-2.5,4.3-3.8,7.2-3.8
			c1.3,0,2.7,0.8,4.4,2.5c0.5-0.6,1.1-1.2,1.7-1.6c0.8-0.6,1.5-0.9,2.1-0.9c0.6,0,0.9,0.8,0.9,2.3c-0.1,0.8-0.2,1.6-0.3,2.4
			c-0.1,0.9-0.4,1.7-0.8,2.5c-0.4,0.9-0.5,4.2-0.5,9.9c0,1.1,0.1,1.6,0.4,1.6c0.7,0,1.6-0.9,2.8-2.6c1.4-2,2.6-4.2,3.6-6.5
			c1.2-2.6,1.9-3.9,2.2-3.9c0.3,0,0.4,0.2,0.4,0.5c0,1.1-0.6,2.9-1.8,5.4C215.1,381.2,212.4,384.6,210.2,384.6z M202.8,365.2
			c-1.1,0-2.3,0.8-3.6,2.5c-1.3,1.7-2,3.8-1.9,5.9c0,2.3,0.3,4.1,1,5.6c0.7,1.5,1.5,2.2,2.6,2.2c1.3,0,3.3-3.3,5.9-10
			c0-0.3,0.1-0.9,0.1-1.6c0.1-0.8,0.1-1.4,0.2-1.8c-0.5-0.8-1.1-1.4-1.9-1.9C204.5,365.5,203.7,365.2,202.8,365.2L202.8,365.2z"/>
		<path class="st0" d="M215.3,356.6c-0.6-0.4-0.9-1.1-0.8-1.8c0-0.8,0.4-1.5,1.1-1.9c0.6-0.4,1.3-0.7,2.1-0.7c0.6,0,1.2,0.2,1.6,0.5
			c0.4,0.3,0.7,0.8,0.7,1.3c0,2.1-1,3.1-3.1,3.1C216.3,357.1,215.8,356.9,215.3,356.6z M220.4,384.6c-1.6,0-2.8-0.3-3.6-1
			c-0.3-0.3-0.4-1.3-0.4-3c0-1.7,0.1-4.6,0.4-8.7c0.3-4.1,0.5-6.3,0.7-6.6c0.6-0.7,1.2-1.3,1.9-1.8c1-0.9,1.9-1.3,2.5-1.3
			c0.6,0,0.9,0.8,0.9,2.3c-0.1,0.8-0.2,1.5-0.3,2.3c-0.1,0.9-0.4,1.8-0.8,2.6c-0.5,1.1-0.8,4.6-0.8,10.5c0,1.1,0.1,1.6,0.4,1.6
			c0.7,0,1.6-0.9,2.8-2.6c1.4-2,2.6-4.2,3.6-6.5c1.2-2.6,1.9-3.9,2.2-3.9c0.3,0,0.4,0.2,0.4,0.5c0,1.1-0.6,2.9-1.8,5.4
			C225.3,381.2,222.6,384.6,220.4,384.6L220.4,384.6z M223.4,356.6c-0.6-0.4-0.9-1.1-0.8-1.8c0-0.8,0.4-1.6,1.2-1.9
			c0.6-0.4,1.4-0.7,2.1-0.7c0.6,0,1.2,0.2,1.6,0.5c0.4,0.3,0.6,0.8,0.6,1.3c0,2.1-1,3.1-3,3.1C224.5,357.1,223.9,356.9,223.4,356.6
			L223.4,356.6z"/>
		<path class="st4" d="M251.9,374.3c0.4-0.7,0.9-1.4,1.2-2.1c1.3-2.3,2.1-3.5,2.3-3.5c0.3,0,0.4,0.2,0.4,0.5c0,2-1,4.5-3.1,7.5
			c-3.7,5.5-8.7,8.2-14.8,8.2c-1.7,0-3.3-0.4-4.8-1.2c-1.4-0.7-2.6-1.8-3.5-3.1c-1.7-2.3-2.6-5.1-2.6-8c0-7,1.8-12.7,5.5-17
			c3.7-4.3,8-6.5,13-6.5c1.7-0.1,3.4,0.5,4.7,1.6c1.2,1.1,1.9,2.6,1.8,4.2c0,1.7-0.4,3.3-1.3,4.7c-0.8,1.5-1.9,2.2-3.1,2.2
			c-1.2,0-1.8-0.3-1.8-1c0-0.7,0.4-1.6,1.2-2.5c0.7-0.8,1.1-1.7,1.2-2.8c0-2.9-1.5-4.3-4.6-4.3c-3.1,0-5.8,2-8.3,6.1
			c-2.5,4.1-3.7,8.3-3.7,12.6c0,2.9,0.9,5.7,2.6,8c1.7,2.3,4.1,3.5,7.2,3.5C245,381.5,248.5,379.1,251.9,374.3z"/>
		<path class="st4" d="M257,381l0.1,1.9c0,1.1-0.3,1.7-1,1.7c-0.9,0-1.9-0.1-2.8-0.4c-0.9-0.3-1.3-0.6-1.3-1.1s0.1-2.1,0.3-4.8
			c0.2-2.7,0.3-4.8,0.3-6.2v-3.5c0-10.3,1.8-16.9,5.5-19.8c0.7-0.6,1.7-1,2.6-1c0.4,0,0.8,0.4,1.2,1.3c0.4,1.1,0.6,2.3,0.6,3.5
			c0,3.3-0.6,6.6-1.8,9.8c-1.2,3-2.4,5.3-3.6,7c0,1-0.1,2.6-0.1,4.7c0.2-0.2,1-1.6,2.5-4.1c1.1-2,2.4-3.8,3.9-5.5
			c1.1-1.2,2-1.8,2.9-1.8c0.8,0,1.6,0.3,2.3,0.8c0.6,0.5,1,1.3,1,2.1c-0.1,2.6-0.3,5.2-0.6,7.8c-0.4,3.5-0.6,5.6-0.6,6.5
			c0,0.9,0.1,1.4,0.4,1.4c0.7,0,1.6-0.9,2.8-2.6c1.4-2,2.6-4.2,3.6-6.4c1.2-2.6,1.9-3.9,2.2-3.9s0.4,0.2,0.4,0.5
			c0,1.1-0.6,2.9-1.8,5.4c-3.2,6.8-5.9,10.2-8.1,10.2c-1.6,0-2.8-0.3-3.6-1c-0.3-0.3-0.4-1-0.4-2.2s0.1-3.1,0.3-5.8
			c0.2-2.7,0.3-4.7,0.3-6c0-1.3-0.2-2-0.7-2c-0.5,0-1.7,1.4-3.7,4.2c-2,2.8-3,4.5-3.2,5.3C257.2,378.3,257.1,379.7,257,381z
			 M261,354c0-1.7-0.2-2.5-0.7-2.5c-0.7,0-1.4,2.2-2.1,6.7c-0.4,2.8-0.7,5.5-0.8,8.3C259.8,361.5,261,357.4,261,354L261,354z"/>
		<path class="st4" d="M281.9,384.6c-2.1,0.1-4.1-0.9-5.4-2.6c-1.3-1.7-2-3.7-2-5.9c0-4.4,0.9-7.7,2.8-10c1.7-2.2,4.4-3.5,7.2-3.4
			c1.2,0,2.4,0.4,3.4,1.1c0.9,0.8,1.4,1.9,1.3,3.1c0,2.4-1,4.5-3.1,6.1s-4.5,2.5-7.5,2.6c0.1,1.5,0.7,2.9,1.6,4.1
			c0.9,1.2,2,1.7,3.2,1.7c1.1,0,2.3-0.3,3.3-0.8c1-0.6,1.9-1.5,2.7-2.4c1.8-2.3,3.2-4.9,4.4-7.6c0.3-0.7,0.6-1.2,0.8-1.6
			c0.2-0.3,0.4-0.5,0.6-0.5c0.2,0,0.3,0.2,0.3,0.5c0,2-1.2,5.1-3.7,9.1C289.1,382.4,285.8,384.6,281.9,384.6z M278.7,374.1
			c2.4-0.4,4.1-1.2,5.2-2.3c1.1-1.2,1.7-2.8,1.6-4.4c0-1.8-0.6-2.7-1.8-2.7c-1.4,0-2.6,1-3.6,2.9
			C279.3,369.7,278.7,371.9,278.7,374.1z"/>
		<path class="st4" d="M301.3,371.5c1.9-0.4,3.8-1.1,5.5-2c0.8-0.4,1.5-0.9,2.3-1.2c0.2,0,0.4,0.2,0.4,0.6c0,0.4-0.4,0.9-1.2,1.5
			c-1.9,1.4-4.1,2.5-6.4,3.2c1.1,4.2,1.6,8.4,1.6,12.7c0,3.6-0.4,7.3-1.3,10.8c-0.4,1.7-1.2,3.3-2.3,4.7c-0.9,1.2-2.3,1.8-3.8,1.8
			c-1.2,0.1-2.2-0.6-2.7-1.7c-0.6-1.2-0.9-2.5-1-3.8c-0.1-1.9-0.2-5-0.2-9.3c0.1-5.2,0.4-10.4,1-15.5c-1.5-1-2.2-2.3-2.2-3.8
			c0-1.5,0.3-2.7,1-3.5c0.6-0.8,1.5-1.4,2.4-1.6c0.6-3.5,1.1-6.5,1.7-9.1c0.4-2.2,1.3-4.3,2.5-6.2c1.1-1.6,2.3-2.4,3.4-2.4
			c1.3,0,1.9,1.4,1.9,4.3c0,4.5-1.7,9.6-5,15.3C300,367.9,300.8,369.6,301.3,371.5z M294.2,365.9c-0.6,0.2-1,0.8-0.9,1.4
			c0,0.7,0.1,1.3,0.5,1.9C293.9,367.7,294.1,366.6,294.2,365.9z M297,374.5c-0.4,5-0.5,10.7-0.5,17.1c0,6.4,0.3,9.7,1,9.7
			c1.2,0,2.2-1.6,3-4.8c0.8-3.5,1.3-7.1,1.2-10.7c0-4-0.5-8-1.3-11.9C299.3,374.3,298.2,374.5,297,374.5z M298,367.8l-0.4,0.6
			l-0.3,3.1c0.5,0.2,0.9,0.2,1.4,0.2c0.4,0,0.7,0,1.1-0.1C299.4,370.4,298.7,369,298,367.8L298,367.8z M298,365.4
			c1.3-2.2,2.4-4.5,3.2-6.9c1-2.6,1.5-4.9,1.5-6.6c0-1.8-0.2-2.7-0.5-2.7c-0.6,0-1.3,1.5-2.1,4.4C299.1,357.5,298.4,361.5,298,365.4
			L298,365.4z"/>
	</g>
</g>
<line class="st6" x1="332.6" y1="164.6" x2="332.6" y2="430.9"/>
<line class="st6" x1="332.6" y1="290.2" x2="716.9" y2="290.2"/>
<g>
	<path class="st1" d="M786.8,549.2c-0.9,0-1.6,0.1-2.3,0.3c-0.6,0.2-1,0.4-1,0.7c0,0.2,0.1,0.2,0.3,0.2l1.9-0.1
		c1.2,0,2.1,0.5,2.8,1.6c0.6,1.1,0.9,2.2,0.9,3.5s-0.3,2.5-1,3.6c-0.3,0.6-0.8,1-1.5,1.4c-0.7,0.3-1.6,0.5-2.6,0.5
		c-1.1,0-2-0.4-2.7-1.3c-0.7-0.8-1.1-1.9-1.1-3.2c0-1.3,0.1-2.4,0.3-3.3c0.2-0.9,0.8-1.7,1.8-2.7c0.2-0.2,0.3-0.3,0.3-0.4
		c0-0.1-0.1-0.2-0.3-0.2c-0.6,0-1.3,0.3-2.1,1c-1.9,1.6-2.9,3.7-2.9,6.3c0,1.4,0.5,2.5,1.4,3.4c0.9,0.9,2.4,1.3,4.5,1.3
		c1.5,0,2.8-0.2,3.9-0.7c1.2-0.5,2.1-1.1,2.7-1.8c1.3-1.5,2-3.2,2-4.9c0-1.8-0.5-3.1-1.6-4S788.3,549.2,786.8,549.2z"/>
	<path class="st1" d="M794.9,561.9c0.6,0,1.2-0.5,1.8-1.4c0.9,0,2,0.3,3.4,0.8c1.4,0.5,2.3,0.8,2.6,0.8c1.1,0,1.9-0.1,2.5-0.4
		c0.6-0.3,1.2-0.8,1.9-1.5s1-1.3,1-1.7c0-0.2-0.1-0.3-0.3-0.3c-0.2,0-0.5,0.2-0.9,0.7c-0.8,0.8-1.6,1.2-2.5,1.2
		c-0.3,0-1.2-0.1-2.7-0.4c-1.5-0.3-2.7-0.5-3.6-0.6c1-0.7,2.1-1.4,3.4-2.1c1.3-0.7,2.3-1.3,2.9-1.6s1.2-0.9,1.7-1.4
		c0.5-0.6,0.7-1.3,0.7-2.2c0-0.8-0.5-1.5-1.6-2c-1-0.5-2.3-0.8-3.7-0.8c-1.4,0-2.8,0.3-4,0.9c-1.2,0.6-1.8,1.4-1.8,2.4
		c0,0.4,0.1,0.7,0.3,1.1c0.2,0.4,0.5,0.5,0.8,0.5s0.6-0.1,0.8-0.3c0.2-0.2,0.3-0.4,0.3-0.6s-0.1-0.5-0.3-0.8
		c-0.2-0.3-0.3-0.6-0.3-0.8c0-0.5,0.3-0.9,1-1.1c0.7-0.2,1.5-0.3,2.4-0.3c0.9,0,1.6,0.2,2.2,0.7c0.6,0.4,0.8,0.9,0.8,1.5
		c0,0.6-0.1,1.1-0.2,1.5c-0.2,0.4-0.5,0.8-0.9,1.2c-0.5,0.4-0.9,0.7-1.4,1c-0.4,0.3-1.2,0.8-2.2,1.4c-1,0.6-2,1.2-2.8,1.8
		c-0.7,0.1-1.4,0.3-1.9,0.8c-0.6,0.4-0.8,0.8-0.8,1.2c0,0.3,0.1,0.6,0.4,0.7C794.1,561.8,794.5,561.9,794.9,561.9z"/>
</g>
</svg>
